<svg width="64" height="64" viewBox="0 0 64 64" fill="none" xmlns="http://www.w3.org/2000/svg">
<rect x="10.3774" width="54" height="54" rx="27" transform="rotate(10.7722 10.3774 0)" fill="#B9B9B9"/>
<path d="M15.3249 22.665L16.8359 22.9525L15.0306 32.4415L12.895 32.0352L14.2161 25.0914L12.6539 25.6222L12.0676 23.7293L15.3249 22.665ZM20.3106 33.62C19.5853 33.482 18.9775 33.153 18.4873 32.6329C17.998 32.1084 17.6655 31.442 17.4899 30.6339C17.3187 29.8266 17.3239 28.9462 17.5053 27.9926C17.6867 27.039 18.0053 26.2182 18.4609 25.5302C18.921 24.843 19.4745 24.3475 20.1215 24.0438C20.7684 23.7401 21.4545 23.6573 22.1798 23.7952C22.9095 23.9341 23.5195 24.2635 24.0097 24.7836C24.5044 25.3045 24.8373 25.9686 25.0085 26.7759C25.185 27.5795 25.182 28.4604 24.9998 29.4185C24.7238 30.869 24.1497 31.9845 23.2775 32.7649C22.4054 33.5454 21.4164 33.8304 20.3106 33.62ZM20.7015 31.565C21.1671 31.6536 21.5961 31.4592 21.9885 30.9818C22.3809 30.5044 22.6571 29.8449 22.8172 29.0032C22.9774 28.1616 22.9626 27.4467 22.773 26.8585C22.5833 26.2704 22.2557 25.932 21.7901 25.8435C21.3379 25.7574 20.9152 25.9554 20.522 26.4372C20.1296 26.9146 19.8538 27.5719 19.6945 28.4091C19.5353 29.2463 19.55 29.9612 19.7388 30.5538C19.9284 31.1419 20.2494 31.479 20.7015 31.565ZM28.987 35.2707C28.2617 35.1327 27.6539 34.8037 27.1637 34.2837C26.6744 33.7591 26.3419 33.0928 26.1663 32.2847C25.9951 31.4774 26.0003 30.5969 26.1817 29.6433C26.3631 28.6897 26.6816 27.8689 27.1373 27.1809C27.5974 26.4937 28.1509 25.9983 28.7979 25.6946C29.4448 25.3909 30.1309 25.308 30.8562 25.446C31.5859 25.5848 32.1959 25.9143 32.6861 26.4343C33.1808 26.9552 33.5137 27.6193 33.6849 28.4266C33.8613 29.2303 33.8584 30.1111 33.6762 31.0692C33.4002 32.5198 32.8261 33.6352 31.9539 34.4157C31.0818 35.1961 30.0928 35.4811 28.987 35.2707ZM29.3779 33.2158C29.8435 33.3044 30.2725 33.11 30.6649 32.6326C31.0572 32.1552 31.3335 31.4956 31.4936 30.654C31.6538 29.8123 31.639 29.0974 31.4494 28.5093C31.2597 27.9211 30.9321 27.5828 30.4665 27.4942C30.0143 27.4082 29.5916 27.6061 29.1984 28.088C28.806 28.5654 28.5302 29.2227 28.3709 30.0599C28.2117 30.8971 28.2264 31.612 28.4152 32.2046C28.6048 32.7927 28.9257 33.1298 29.3779 33.2158ZM37.6634 36.9215C36.9381 36.7835 36.3303 36.4545 35.8401 35.9344C35.3508 35.4099 35.0183 34.7435 34.8427 33.9354C34.6715 33.1281 34.6767 32.2477 34.8581 31.2941C35.0395 30.3405 35.358 29.5197 35.8137 28.8316C36.2738 28.1445 36.8273 27.649 37.4743 27.3453C38.1212 27.0416 38.8073 26.9587 39.5326 27.0967C40.2623 27.2356 40.8723 27.565 41.3625 28.0851C41.8572 28.606 42.1901 29.2701 42.3613 30.0774C42.5377 30.881 42.5348 31.7619 42.3526 32.72C42.0766 34.1705 41.5025 35.286 40.6303 36.0664C39.7582 36.8468 38.7692 37.1319 37.6634 36.9215ZM38.0543 34.8665C38.5199 34.9551 38.9489 34.7607 39.3413 34.2833C39.7336 33.8059 40.0099 33.1464 40.17 32.3047C40.3302 31.463 40.3154 30.7481 40.1258 30.16C39.9361 29.5719 39.6085 29.2335 39.1429 29.145C38.6907 29.0589 38.268 29.2568 37.8748 29.7387C37.4824 30.2161 37.2066 30.8734 37.0473 31.7106C36.888 32.5478 36.9028 33.2627 37.0916 33.8553C37.2812 34.4434 37.6021 34.7805 38.0543 34.8665ZM51.2001 39.323L48.5878 38.826L46.983 35.1179L44.1354 37.9789L41.5164 37.4806L45.796 33.3473L43.3822 28.0031L46.0079 28.5027L47.5785 32.1346L50.3528 29.3293L52.9517 29.8238L48.7508 33.9094L51.2001 39.323Z" fill="black"/>
</svg>
