<svg width="54" height="54" viewBox="0 0 54 54" fill="none" xmlns="http://www.w3.org/2000/svg">
<rect width="54" height="54" rx="27" fill="#B9B9B9"/>
<path d="M23.093 37.1194L22.721 35.7309L21.3411 36.1007C20.9501 36.2054 20.5869 36.1599 20.2514 35.964C19.916 35.7682 19.6952 35.4741 19.5891 35.0819L15.8686 21.1967C15.7632 20.8033 15.8074 20.4383 16.0011 20.1016C16.1949 19.7649 16.4866 19.5439 16.8764 19.4385L18.2563 19.0687L17.8843 17.6802C17.7789 17.2868 17.823 16.9217 18.0168 16.5851C18.2105 16.2484 18.5023 16.0274 18.8921 15.9219C19.2819 15.8165 19.6456 15.8619 19.9831 16.0582C20.3207 16.2545 20.541 16.5487 20.6441 16.9407L21.0161 18.3292L22.396 17.9595C22.787 17.8547 23.1507 17.9002 23.487 18.0958C23.8234 18.2914 24.0437 18.5855 24.148 18.9783L27.8685 32.8634C27.9739 33.2569 27.9299 33.6224 27.7363 33.9599C27.5428 34.2975 27.2509 34.5181 26.8606 34.6217L25.4807 34.9914L25.8528 36.38C25.9582 36.7734 25.9142 37.1389 25.7207 37.4765C25.5272 37.814 25.2353 38.0346 24.845 38.1382C24.4547 38.2418 24.0914 38.1963 23.7553 38.0016C23.4192 37.8069 23.1984 37.5129 23.093 37.1194ZM34.1322 34.1615L32.644 28.6074L31.2641 28.9772C30.8731 29.0819 30.5099 29.0364 30.1744 28.8405C29.839 28.6447 29.6182 28.3507 29.5121 27.9584L27.6519 21.0158C27.5464 20.6224 27.5906 20.2574 27.7844 19.9207C27.9781 19.5841 28.2699 19.363 28.6597 19.2576L30.0396 18.8878L28.9234 14.7223C28.818 14.3289 28.8622 13.9638 29.0559 13.6272C29.2497 13.2905 29.5415 13.0694 29.9313 12.964C30.3211 12.8586 30.6847 12.904 31.0223 13.1003C31.3598 13.2966 31.5801 13.5907 31.6832 13.9828L32.7994 18.1483L34.1793 17.7786C34.5702 17.6738 34.9339 17.7193 35.2703 17.9149C35.6067 18.1105 35.827 18.4046 35.9312 18.7974L37.7915 25.74C37.8969 26.1334 37.8528 26.4989 37.6593 26.8365C37.4658 27.174 37.1739 27.3946 36.7836 27.4982L35.4037 27.868L36.8919 33.422C36.9974 33.8154 36.9533 34.1809 36.7598 34.5185C36.5663 34.8561 36.2744 35.0767 35.8841 35.1803C35.4938 35.2839 35.1306 35.2383 34.7945 35.0437C34.4583 34.849 34.2376 34.5549 34.1322 34.1615Z" fill="black"/>
</svg>
