<svg width="663" height="588" viewBox="0 0 663 588" fill="none" xmlns="http://www.w3.org/2000/svg">
<path d="M149.519 480.595C150.015 480.595 150.402 480.506 150.678 480.328C150.954 480.144 151.092 479.85 151.092 479.445C151.092 479.212 151.046 479.019 150.954 478.866C150.868 478.706 150.751 478.574 150.604 478.47C150.457 478.36 150.288 478.268 150.098 478.194C149.908 478.114 149.709 478.032 149.5 477.946C149.236 477.841 149 477.734 148.792 477.624C148.583 477.513 148.405 477.391 148.258 477.256C148.111 477.115 147.998 476.955 147.918 476.777C147.844 476.6 147.807 476.391 147.807 476.152C147.807 475.606 147.988 475.192 148.35 474.91C148.712 474.628 149.215 474.487 149.859 474.487C150.031 474.487 150.199 474.499 150.365 474.523C150.531 474.548 150.684 474.582 150.825 474.625C150.972 474.661 151.104 474.704 151.22 474.753C151.343 474.803 151.444 474.855 151.524 474.91L151.303 475.434C151.125 475.312 150.908 475.213 150.65 475.14C150.399 475.066 150.126 475.029 149.831 475.029C149.629 475.029 149.442 475.051 149.27 475.094C149.105 475.131 148.96 475.195 148.838 475.287C148.715 475.373 148.617 475.483 148.543 475.618C148.476 475.753 148.442 475.916 148.442 476.106C148.442 476.302 148.479 476.468 148.553 476.603C148.626 476.738 148.727 476.854 148.856 476.952C148.991 477.05 149.148 477.139 149.325 477.219C149.503 477.299 149.696 477.381 149.905 477.467C150.156 477.572 150.393 477.676 150.613 477.78C150.84 477.884 151.036 478.007 151.202 478.148C151.368 478.289 151.5 478.461 151.598 478.663C151.696 478.866 151.745 479.114 151.745 479.408C151.745 479.985 151.542 480.417 151.138 480.706C150.739 480.994 150.196 481.138 149.509 481.138C149.264 481.138 149.04 481.123 148.838 481.092C148.635 481.061 148.454 481.025 148.295 480.982C148.136 480.933 148.001 480.883 147.89 480.834C147.78 480.785 147.694 480.742 147.633 480.706L147.835 480.163C147.896 480.2 147.979 480.243 148.083 480.292C148.188 480.341 148.31 480.39 148.451 480.439C148.592 480.482 148.752 480.519 148.93 480.549C149.108 480.58 149.304 480.595 149.519 480.595ZM156.948 474.625V475.167H154.906V481H154.28V475.167H152.238V474.625H156.948ZM157.94 481V474.625H161.62V475.167H158.566V477.385H161.289V477.918H158.566V480.457H161.859V481H157.94ZM167.483 481C167.366 480.687 167.256 480.387 167.152 480.098C167.048 479.81 166.946 479.528 166.848 479.252H163.748C163.644 479.528 163.539 479.81 163.435 480.098C163.331 480.387 163.224 480.687 163.113 481H162.46C162.705 480.338 162.935 479.721 163.15 479.151C163.365 478.574 163.573 478.032 163.776 477.523C163.984 477.007 164.19 476.514 164.392 476.041C164.594 475.569 164.809 475.097 165.036 474.625H165.588C165.815 475.097 166.029 475.569 166.232 476.041C166.434 476.514 166.637 477.007 166.839 477.523C167.048 478.032 167.259 478.574 167.474 479.151C167.688 479.721 167.922 480.338 168.173 481H167.483ZM165.293 475.342C165.06 475.87 164.834 476.406 164.613 476.952C164.398 477.498 164.174 478.087 163.941 478.719H166.655C166.422 478.087 166.195 477.498 165.974 476.952C165.753 476.406 165.527 475.87 165.293 475.342ZM174.149 477.808C174.149 478.354 174.063 478.829 173.892 479.234C173.72 479.638 173.478 479.976 173.165 480.246C172.858 480.515 172.49 480.718 172.061 480.853C171.632 480.988 171.159 481.055 170.644 481.055C170.387 481.055 170.117 481.04 169.835 481.009C169.553 480.985 169.304 480.945 169.089 480.89V474.744C169.304 474.683 169.553 474.64 169.835 474.615C170.117 474.585 170.387 474.569 170.644 474.569C171.159 474.569 171.632 474.637 172.061 474.772C172.49 474.907 172.858 475.109 173.165 475.379C173.478 475.649 173.72 475.986 173.892 476.391C174.063 476.796 174.149 477.268 174.149 477.808ZM169.715 480.448C169.752 480.454 169.844 480.466 169.991 480.485C170.144 480.503 170.387 480.512 170.718 480.512C171.178 480.512 171.579 480.451 171.923 480.328C172.266 480.2 172.555 480.019 172.788 479.786C173.021 479.553 173.196 479.27 173.312 478.939C173.429 478.602 173.487 478.225 173.487 477.808C173.487 477.391 173.429 477.017 173.312 476.685C173.196 476.354 173.021 476.072 172.788 475.839C172.555 475.606 172.266 475.428 171.923 475.305C171.579 475.177 171.178 475.112 170.718 475.112C170.387 475.112 170.144 475.121 169.991 475.14C169.844 475.158 169.752 475.171 169.715 475.177V480.448ZM176.752 481V478.378C176.316 477.71 175.914 477.066 175.546 476.446C175.185 475.821 174.847 475.213 174.534 474.625H175.261C175.519 475.164 175.801 475.713 176.108 476.271C176.42 476.823 176.745 477.351 177.083 477.854C177.408 477.351 177.727 476.823 178.04 476.271C178.352 475.713 178.641 475.164 178.904 474.625H179.585C179.26 475.207 178.917 475.814 178.555 476.446C178.193 477.072 177.8 477.71 177.377 478.36V481H176.752Z" fill="#A1AEB7"/>
<path d="M237.906 474.569C238.807 474.569 239.479 474.741 239.92 475.085C240.362 475.428 240.583 475.916 240.583 476.547C240.583 476.909 240.518 477.219 240.39 477.477C240.261 477.728 240.077 477.933 239.838 478.093C239.598 478.246 239.304 478.36 238.954 478.433C238.611 478.501 238.221 478.535 237.786 478.535H236.921V481H236.296V474.744C236.516 474.683 236.774 474.64 237.068 474.615C237.369 474.585 237.648 474.569 237.906 474.569ZM237.933 475.112C237.7 475.112 237.501 475.121 237.335 475.14C237.176 475.152 237.038 475.164 236.921 475.177V477.992H237.712C238.05 477.992 238.353 477.973 238.623 477.937C238.899 477.894 239.132 477.82 239.322 477.716C239.519 477.605 239.669 477.455 239.773 477.265C239.877 477.075 239.93 476.833 239.93 476.538C239.93 476.256 239.871 476.023 239.755 475.839C239.644 475.655 239.494 475.511 239.304 475.407C239.12 475.296 238.908 475.22 238.669 475.177C238.43 475.134 238.185 475.112 237.933 475.112ZM245.99 476.538C245.99 477.017 245.864 477.394 245.613 477.67C245.362 477.946 245.03 478.145 244.619 478.268C244.718 478.39 244.843 478.556 244.997 478.764C245.156 478.973 245.319 479.203 245.484 479.454C245.65 479.7 245.812 479.957 245.972 480.227C246.131 480.497 246.266 480.755 246.377 481H245.705C245.576 480.755 245.435 480.509 245.282 480.264C245.135 480.019 244.981 479.783 244.822 479.556C244.669 479.323 244.518 479.108 244.371 478.912C244.224 478.715 244.095 478.544 243.985 478.397C243.788 478.415 243.592 478.424 243.396 478.424H242.366V481H241.74V474.744C241.961 474.683 242.218 474.64 242.513 474.615C242.813 474.585 243.089 474.569 243.341 474.569C244.218 474.569 244.877 474.735 245.319 475.066C245.766 475.397 245.99 475.888 245.99 476.538ZM243.414 475.112C243.181 475.112 242.976 475.121 242.798 475.14C242.626 475.152 242.482 475.164 242.366 475.177V477.891H243.23C243.519 477.891 243.791 477.878 244.049 477.854C244.307 477.823 244.531 477.762 244.721 477.67C244.911 477.572 245.061 477.434 245.171 477.256C245.282 477.078 245.337 476.836 245.337 476.529C245.337 476.247 245.282 476.014 245.171 475.83C245.061 475.646 244.917 475.502 244.739 475.397C244.561 475.287 244.356 475.213 244.123 475.177C243.896 475.134 243.66 475.112 243.414 475.112ZM253.149 477.808C253.149 478.354 253.069 478.835 252.91 479.252C252.75 479.669 252.533 480.019 252.257 480.301C251.987 480.577 251.671 480.785 251.309 480.926C250.947 481.067 250.564 481.138 250.159 481.138C249.754 481.138 249.371 481.067 249.009 480.926C248.647 480.785 248.328 480.577 248.052 480.301C247.783 480.019 247.568 479.669 247.408 479.252C247.249 478.835 247.169 478.354 247.169 477.808C247.169 477.262 247.249 476.784 247.408 476.373C247.568 475.956 247.783 475.609 248.052 475.333C248.328 475.051 248.647 474.839 249.009 474.698C249.371 474.557 249.754 474.487 250.159 474.487C250.564 474.487 250.947 474.557 251.309 474.698C251.671 474.839 251.987 475.051 252.257 475.333C252.533 475.609 252.75 475.956 252.91 476.373C253.069 476.784 253.149 477.262 253.149 477.808ZM252.487 477.808C252.487 477.378 252.431 476.995 252.321 476.658C252.211 476.314 252.054 476.023 251.852 475.784C251.649 475.545 251.404 475.364 251.116 475.241C250.834 475.112 250.515 475.048 250.159 475.048C249.803 475.048 249.481 475.112 249.193 475.241C248.911 475.364 248.669 475.545 248.466 475.784C248.264 476.023 248.108 476.314 247.997 476.658C247.887 476.995 247.832 477.378 247.832 477.808C247.832 478.237 247.887 478.623 247.997 478.967C248.108 479.304 248.264 479.592 248.466 479.832C248.669 480.071 248.911 480.255 249.193 480.384C249.481 480.512 249.803 480.577 250.159 480.577C250.515 480.577 250.834 480.512 251.116 480.384C251.404 480.255 251.649 480.071 251.852 479.832C252.054 479.592 252.211 479.304 252.321 478.967C252.431 478.623 252.487 478.237 252.487 477.808ZM258.525 477.983H259.151V480.825C259.034 480.874 258.804 480.936 258.461 481.009C258.124 481.089 257.707 481.129 257.21 481.129C256.793 481.129 256.406 481.055 256.051 480.908C255.695 480.761 255.385 480.549 255.122 480.273C254.864 479.991 254.662 479.645 254.514 479.234C254.367 478.817 254.294 478.341 254.294 477.808C254.294 477.274 254.373 476.802 254.533 476.391C254.692 475.974 254.907 475.627 255.177 475.351C255.453 475.069 255.772 474.855 256.133 474.707C256.495 474.56 256.882 474.487 257.293 474.487C257.765 474.487 258.154 474.539 258.461 474.643C258.768 474.741 258.991 474.836 259.133 474.928L258.921 475.462C258.749 475.339 258.516 475.241 258.222 475.167C257.927 475.088 257.608 475.048 257.265 475.048C256.946 475.048 256.646 475.106 256.363 475.223C256.081 475.339 255.836 475.514 255.627 475.747C255.419 475.98 255.253 476.268 255.131 476.612C255.014 476.955 254.956 477.354 254.956 477.808C254.956 478.231 255.005 478.614 255.103 478.958C255.201 479.295 255.348 479.586 255.545 479.832C255.747 480.071 255.995 480.255 256.29 480.384C256.584 480.512 256.925 480.577 257.311 480.577C257.624 480.577 257.884 480.561 258.093 480.531C258.308 480.494 258.452 480.46 258.525 480.43V477.983ZM264.857 476.538C264.857 477.017 264.731 477.394 264.479 477.67C264.228 477.946 263.897 478.145 263.486 478.268C263.584 478.39 263.71 478.556 263.863 478.764C264.022 478.973 264.185 479.203 264.351 479.454C264.516 479.7 264.679 479.957 264.838 480.227C264.998 480.497 265.133 480.755 265.243 481H264.571C264.443 480.755 264.302 480.509 264.148 480.264C264.001 480.019 263.848 479.783 263.688 479.556C263.535 479.323 263.385 479.108 263.237 478.912C263.09 478.715 262.961 478.544 262.851 478.397C262.655 478.415 262.459 478.424 262.262 478.424H261.232V481H260.606V474.744C260.827 474.683 261.085 474.64 261.379 474.615C261.68 474.585 261.956 474.569 262.207 474.569C263.084 474.569 263.743 474.735 264.185 475.066C264.633 475.397 264.857 475.888 264.857 476.538ZM262.281 475.112C262.048 475.112 261.842 475.121 261.664 475.14C261.493 475.152 261.348 475.164 261.232 475.177V477.891H262.097C262.385 477.891 262.658 477.878 262.915 477.854C263.173 477.823 263.397 477.762 263.587 477.67C263.777 477.572 263.927 477.434 264.038 477.256C264.148 477.078 264.203 476.836 264.203 476.529C264.203 476.247 264.148 476.014 264.038 475.83C263.927 475.646 263.783 475.502 263.605 475.397C263.428 475.287 263.222 475.213 262.989 475.177C262.762 475.134 262.526 475.112 262.281 475.112ZM266.293 481V474.625H269.973V475.167H266.919V477.385H269.642V477.918H266.919V480.457H270.212V481H266.293ZM272.767 480.595C273.264 480.595 273.65 480.506 273.926 480.328C274.202 480.144 274.34 479.85 274.34 479.445C274.34 479.212 274.294 479.019 274.202 478.866C274.116 478.706 274 478.574 273.852 478.47C273.705 478.36 273.537 478.268 273.346 478.194C273.156 478.114 272.957 478.032 272.748 477.946C272.485 477.841 272.249 477.734 272.04 477.624C271.832 477.513 271.654 477.391 271.506 477.256C271.359 477.115 271.246 476.955 271.166 476.777C271.093 476.6 271.056 476.391 271.056 476.152C271.056 475.606 271.237 475.192 271.598 474.91C271.96 474.628 272.463 474.487 273.107 474.487C273.279 474.487 273.448 474.499 273.613 474.523C273.779 474.548 273.932 474.582 274.073 474.625C274.22 474.661 274.352 474.704 274.469 474.753C274.591 474.803 274.693 474.855 274.772 474.91L274.552 475.434C274.374 475.312 274.156 475.213 273.898 475.14C273.647 475.066 273.374 475.029 273.08 475.029C272.877 475.029 272.69 475.051 272.518 475.094C272.353 475.131 272.209 475.195 272.086 475.287C271.963 475.373 271.865 475.483 271.792 475.618C271.724 475.753 271.69 475.916 271.69 476.106C271.69 476.302 271.727 476.468 271.801 476.603C271.874 476.738 271.976 476.854 272.104 476.952C272.239 477.05 272.396 477.139 272.574 477.219C272.752 477.299 272.945 477.381 273.153 477.467C273.405 477.572 273.641 477.676 273.862 477.78C274.089 477.884 274.285 478.007 274.45 478.148C274.616 478.289 274.748 478.461 274.846 478.663C274.944 478.866 274.993 479.114 274.993 479.408C274.993 479.985 274.791 480.417 274.386 480.706C273.987 480.994 273.445 481.138 272.758 481.138C272.512 481.138 272.288 481.123 272.086 481.092C271.884 481.061 271.703 481.025 271.543 480.982C271.384 480.933 271.249 480.883 271.139 480.834C271.028 480.785 270.942 480.742 270.881 480.706L271.083 480.163C271.145 480.2 271.227 480.243 271.332 480.292C271.436 480.341 271.559 480.39 271.7 480.439C271.841 480.482 272 480.519 272.178 480.549C272.356 480.58 272.552 480.595 272.767 480.595ZM277.519 480.595C278.016 480.595 278.403 480.506 278.679 480.328C278.954 480.144 279.092 479.85 279.092 479.445C279.092 479.212 279.046 479.019 278.954 478.866C278.869 478.706 278.752 478.574 278.605 478.47C278.458 478.36 278.289 478.268 278.099 478.194C277.909 478.114 277.709 478.032 277.501 477.946C277.237 477.841 277.001 477.734 276.793 477.624C276.584 477.513 276.406 477.391 276.259 477.256C276.112 477.115 275.998 476.955 275.919 476.777C275.845 476.6 275.808 476.391 275.808 476.152C275.808 475.606 275.989 475.192 276.351 474.91C276.713 474.628 277.216 474.487 277.86 474.487C278.031 474.487 278.2 474.499 278.366 474.523C278.531 474.548 278.685 474.582 278.826 474.625C278.973 474.661 279.105 474.704 279.221 474.753C279.344 474.803 279.445 474.855 279.525 474.91L279.304 475.434C279.126 475.312 278.909 475.213 278.651 475.14C278.399 475.066 278.127 475.029 277.832 475.029C277.63 475.029 277.443 475.051 277.271 475.094C277.105 475.131 276.961 475.195 276.839 475.287C276.716 475.373 276.618 475.483 276.544 475.618C276.477 475.753 276.443 475.916 276.443 476.106C276.443 476.302 276.48 476.468 276.553 476.603C276.627 476.738 276.728 476.854 276.857 476.952C276.992 477.05 277.148 477.139 277.326 477.219C277.504 477.299 277.697 477.381 277.906 477.467C278.157 477.572 278.393 477.676 278.614 477.78C278.841 477.884 279.037 478.007 279.203 478.148C279.368 478.289 279.5 478.461 279.598 478.663C279.697 478.866 279.746 479.114 279.746 479.408C279.746 479.985 279.543 480.417 279.138 480.706C278.74 480.994 278.197 481.138 277.51 481.138C277.265 481.138 277.041 481.123 276.839 481.092C276.636 481.061 276.455 481.025 276.296 480.982C276.136 480.933 276.001 480.883 275.891 480.834C275.781 480.785 275.695 480.742 275.633 480.706L275.836 480.163C275.897 480.2 275.98 480.243 276.084 480.292C276.188 480.341 276.311 480.39 276.452 480.439C276.593 480.482 276.753 480.519 276.931 480.549C277.108 480.58 277.305 480.595 277.519 480.595ZM280.901 474.625H281.527V481H280.901V474.625ZM283.146 474.625C283.33 475.171 283.508 475.689 283.68 476.179C283.852 476.664 284.02 477.136 284.186 477.596C284.351 478.05 284.52 478.498 284.692 478.939C284.864 479.375 285.048 479.816 285.244 480.264C285.434 479.822 285.615 479.384 285.787 478.948C285.964 478.507 286.136 478.059 286.302 477.605C286.473 477.145 286.642 476.67 286.808 476.179C286.979 475.689 287.157 475.171 287.341 474.625H288.004C287.722 475.428 287.467 476.133 287.24 476.741C287.019 477.348 286.811 477.897 286.615 478.387C286.424 478.878 286.24 479.332 286.063 479.749C285.891 480.16 285.71 480.577 285.52 481H284.94C284.75 480.577 284.566 480.16 284.388 479.749C284.21 479.332 284.023 478.878 283.827 478.387C283.637 477.897 283.428 477.348 283.201 476.741C282.981 476.133 282.729 475.428 282.447 474.625H283.146ZM288.924 481V474.625H292.604V475.167H289.549V477.385H292.272V477.918H289.549V480.457H292.843V481H288.924Z" fill="#A1AEB7"/>
<path d="M352.557 481.138C352.147 481.138 351.763 481.064 351.408 480.917C351.058 480.77 350.751 480.555 350.488 480.273C350.23 479.991 350.025 479.645 349.871 479.234C349.724 478.817 349.65 478.341 349.65 477.808C349.65 477.274 349.73 476.802 349.89 476.391C350.055 475.974 350.273 475.624 350.543 475.342C350.813 475.06 351.125 474.849 351.481 474.707C351.837 474.56 352.208 474.487 352.594 474.487C352.833 474.487 353.051 474.502 353.247 474.533C353.444 474.563 353.615 474.603 353.763 474.652C353.91 474.695 354.036 474.741 354.14 474.79C354.244 474.833 354.324 474.873 354.379 474.91L354.177 475.453C354.023 475.361 353.827 475.272 353.588 475.186C353.355 475.094 353.063 475.048 352.714 475.048C352.315 475.048 351.966 475.115 351.665 475.25C351.371 475.385 351.122 475.575 350.92 475.821C350.718 476.066 350.564 476.357 350.46 476.695C350.362 477.032 350.313 477.406 350.313 477.817C350.313 478.24 350.362 478.623 350.46 478.967C350.564 479.304 350.715 479.592 350.911 479.832C351.107 480.071 351.346 480.255 351.628 480.384C351.917 480.512 352.245 480.577 352.613 480.577C353.017 480.577 353.355 480.54 353.625 480.466C353.901 480.387 354.109 480.307 354.25 480.227L354.425 480.761C354.382 480.791 354.308 480.828 354.204 480.871C354.1 480.908 353.968 480.948 353.809 480.991C353.649 481.034 353.465 481.067 353.257 481.092C353.048 481.123 352.815 481.138 352.557 481.138ZM361.155 477.808C361.155 478.354 361.076 478.835 360.916 479.252C360.757 479.669 360.539 480.019 360.263 480.301C359.993 480.577 359.677 480.785 359.315 480.926C358.954 481.067 358.57 481.138 358.165 481.138C357.761 481.138 357.377 481.067 357.015 480.926C356.654 480.785 356.335 480.577 356.059 480.301C355.789 480.019 355.574 479.669 355.415 479.252C355.255 478.835 355.176 478.354 355.176 477.808C355.176 477.262 355.255 476.784 355.415 476.373C355.574 475.956 355.789 475.609 356.059 475.333C356.335 475.051 356.654 474.839 357.015 474.698C357.377 474.557 357.761 474.487 358.165 474.487C358.57 474.487 358.954 474.557 359.315 474.698C359.677 474.839 359.993 475.051 360.263 475.333C360.539 475.609 360.757 475.956 360.916 476.373C361.076 476.784 361.155 477.262 361.155 477.808ZM360.493 477.808C360.493 477.378 360.438 476.995 360.327 476.658C360.217 476.314 360.061 476.023 359.858 475.784C359.656 475.545 359.41 475.364 359.122 475.241C358.84 475.112 358.521 475.048 358.165 475.048C357.81 475.048 357.488 475.112 357.199 475.241C356.917 475.364 356.675 475.545 356.473 475.784C356.27 476.023 356.114 476.314 356.004 476.658C355.893 476.995 355.838 477.378 355.838 477.808C355.838 478.237 355.893 478.623 356.004 478.967C356.114 479.304 356.27 479.592 356.473 479.832C356.675 480.071 356.917 480.255 357.199 480.384C357.488 480.512 357.81 480.577 358.165 480.577C358.521 480.577 358.84 480.512 359.122 480.384C359.41 480.255 359.656 480.071 359.858 479.832C360.061 479.592 360.217 479.304 360.327 478.967C360.438 478.623 360.493 478.237 360.493 477.808ZM365.419 480.08C365.357 479.927 365.268 479.724 365.152 479.473C365.041 479.221 364.916 478.948 364.775 478.654C364.633 478.354 364.489 478.047 364.342 477.734C364.195 477.415 364.054 477.118 363.919 476.842C363.784 476.566 363.664 476.324 363.56 476.115C363.456 475.906 363.379 475.759 363.33 475.673C363.25 476.44 363.186 477.274 363.137 478.176C363.094 479.071 363.054 480.013 363.017 481H362.401C362.456 479.841 362.518 478.731 362.585 477.67C362.659 476.609 362.748 475.594 362.852 474.625H363.404C363.588 474.931 363.784 475.287 363.993 475.692C364.201 476.09 364.407 476.508 364.609 476.943C364.817 477.372 365.017 477.799 365.207 478.222C365.403 478.639 365.575 479.016 365.722 479.353C365.869 479.016 366.038 478.639 366.228 478.222C366.424 477.799 366.624 477.372 366.826 476.943C367.035 476.508 367.243 476.09 367.452 475.692C367.66 475.287 367.856 474.931 368.04 474.625H368.565C368.669 475.594 368.755 476.609 368.822 477.67C368.896 478.731 368.96 479.841 369.016 481H368.381C368.344 480.013 368.301 479.071 368.252 478.176C368.209 477.274 368.148 476.44 368.068 475.673C368.019 475.759 367.942 475.906 367.838 476.115C367.734 476.324 367.614 476.566 367.479 476.842C367.344 477.118 367.203 477.415 367.056 477.734C366.909 478.047 366.765 478.354 366.624 478.654C366.483 478.948 366.354 479.221 366.237 479.473C366.127 479.724 366.041 479.927 365.98 480.08H365.419ZM373.378 480.08C373.317 479.927 373.228 479.724 373.112 479.473C373.001 479.221 372.875 478.948 372.734 478.654C372.593 478.354 372.449 478.047 372.302 477.734C372.155 477.415 372.014 477.118 371.879 476.842C371.744 476.566 371.624 476.324 371.52 476.115C371.416 475.906 371.339 475.759 371.29 475.673C371.21 476.44 371.146 477.274 371.097 478.176C371.054 479.071 371.014 480.013 370.977 481H370.361C370.416 479.841 370.477 478.731 370.545 477.67C370.618 476.609 370.707 475.594 370.812 474.625H371.364C371.548 474.931 371.744 475.287 371.952 475.692C372.161 476.09 372.366 476.508 372.569 476.943C372.777 477.372 372.977 477.799 373.167 478.222C373.363 478.639 373.535 479.016 373.682 479.353C373.829 479.016 373.998 478.639 374.188 478.222C374.384 477.799 374.583 477.372 374.786 476.943C374.994 476.508 375.203 476.09 375.411 475.692C375.62 475.287 375.816 474.931 376 474.625H376.525C376.629 475.594 376.715 476.609 376.782 477.67C376.856 478.731 376.92 479.841 376.975 481H376.341C376.304 480.013 376.261 479.071 376.212 478.176C376.169 477.274 376.108 476.44 376.028 475.673C375.979 475.759 375.902 475.906 375.798 476.115C375.694 476.324 375.574 476.566 375.439 476.842C375.304 477.118 375.163 477.415 375.016 477.734C374.869 478.047 374.725 478.354 374.583 478.654C374.442 478.948 374.314 479.221 374.197 479.473C374.087 479.724 374.001 479.927 373.94 480.08H373.378ZM380.777 481.138C380.354 481.138 379.992 481.074 379.691 480.945C379.397 480.816 379.158 480.638 378.974 480.411C378.79 480.184 378.655 479.921 378.569 479.62C378.489 479.313 378.449 478.985 378.449 478.636V474.625H379.075V478.553C379.075 478.902 379.115 479.206 379.195 479.464C379.28 479.715 379.397 479.924 379.544 480.089C379.691 480.255 379.869 480.377 380.078 480.457C380.286 480.537 380.519 480.577 380.777 480.577C381.035 480.577 381.268 480.537 381.476 480.457C381.685 480.377 381.863 480.255 382.01 480.089C382.157 479.924 382.27 479.715 382.35 479.464C382.436 479.206 382.479 478.902 382.479 478.553V474.625H383.104V478.636C383.104 478.985 383.062 479.313 382.976 479.62C382.896 479.921 382.764 480.184 382.58 480.411C382.396 480.638 382.154 480.816 381.853 480.945C381.559 481.074 381.2 481.138 380.777 481.138ZM389.072 481C388.956 480.785 388.805 480.534 388.621 480.246C388.443 479.957 388.247 479.651 388.033 479.326C387.818 478.994 387.591 478.657 387.352 478.314C387.113 477.964 386.873 477.627 386.634 477.302C386.401 476.971 386.171 476.661 385.944 476.373C385.723 476.084 385.524 475.836 385.346 475.627V481H384.73V474.625H385.227C385.539 474.974 385.874 475.379 386.229 475.839C386.591 476.293 386.944 476.759 387.287 477.237C387.631 477.71 387.95 478.173 388.244 478.627C388.545 479.08 388.79 479.476 388.98 479.813V474.625H389.597V481H389.072ZM391.252 474.625H391.878V481H391.252V474.625ZM397.582 474.625V475.167H395.54V481H394.914V475.167H392.872V474.625H397.582ZM400.325 481V478.378C399.889 477.71 399.488 477.066 399.12 476.446C398.758 475.821 398.421 475.213 398.108 474.625H398.835C399.092 475.164 399.374 475.713 399.681 476.271C399.994 476.823 400.319 477.351 400.656 477.854C400.981 477.351 401.3 476.823 401.613 476.271C401.926 475.713 402.214 475.164 402.478 474.625H403.158C402.833 475.207 402.49 475.814 402.128 476.446C401.766 477.072 401.374 477.71 400.95 478.36V481H400.325Z" fill="#A1AEB7"/>
<path d="M463.843 477.983H464.468V480.825C464.352 480.874 464.122 480.936 463.778 481.009C463.441 481.089 463.024 481.129 462.527 481.129C462.11 481.129 461.724 481.055 461.368 480.908C461.012 480.761 460.703 480.549 460.439 480.273C460.181 479.991 459.979 479.645 459.832 479.234C459.685 478.817 459.611 478.341 459.611 477.808C459.611 477.274 459.691 476.802 459.85 476.391C460.01 475.974 460.224 475.627 460.494 475.351C460.77 475.069 461.089 474.855 461.451 474.707C461.813 474.56 462.199 474.487 462.61 474.487C463.082 474.487 463.472 474.539 463.778 474.643C464.085 474.741 464.309 474.836 464.45 474.928L464.238 475.462C464.067 475.339 463.834 475.241 463.539 475.167C463.245 475.088 462.926 475.048 462.583 475.048C462.264 475.048 461.963 475.106 461.681 475.223C461.399 475.339 461.154 475.514 460.945 475.747C460.736 475.98 460.571 476.268 460.448 476.612C460.332 476.955 460.273 477.354 460.273 477.808C460.273 478.231 460.323 478.614 460.421 478.958C460.519 479.295 460.666 479.586 460.862 479.832C461.065 480.071 461.313 480.255 461.607 480.384C461.902 480.512 462.242 480.577 462.629 480.577C462.941 480.577 463.202 480.561 463.411 480.531C463.625 480.494 463.769 480.46 463.843 480.43V477.983ZM470.174 476.538C470.174 477.017 470.048 477.394 469.797 477.67C469.545 477.946 469.214 478.145 468.803 478.268C468.901 478.39 469.027 478.556 469.181 478.764C469.34 478.973 469.503 479.203 469.668 479.454C469.834 479.7 469.996 479.957 470.156 480.227C470.315 480.497 470.45 480.755 470.56 481H469.889C469.76 480.755 469.619 480.509 469.466 480.264C469.319 480.019 469.165 479.783 469.006 479.556C468.852 479.323 468.702 479.108 468.555 478.912C468.408 478.715 468.279 478.544 468.169 478.397C467.972 478.415 467.776 478.424 467.58 478.424H466.549V481H465.924V474.744C466.145 474.683 466.402 474.64 466.697 474.615C466.997 474.585 467.273 474.569 467.525 474.569C468.402 474.569 469.061 474.735 469.503 475.066C469.95 475.397 470.174 475.888 470.174 476.538ZM467.598 475.112C467.365 475.112 467.16 475.121 466.982 475.14C466.81 475.152 466.666 475.164 466.549 475.177V477.891H467.414C467.702 477.891 467.975 477.878 468.233 477.854C468.491 477.823 468.714 477.762 468.905 477.67C469.095 477.572 469.245 477.434 469.355 477.256C469.466 477.078 469.521 476.836 469.521 476.529C469.521 476.247 469.466 476.014 469.355 475.83C469.245 475.646 469.101 475.502 468.923 475.397C468.745 475.287 468.54 475.213 468.307 475.177C468.08 475.134 467.844 475.112 467.598 475.112ZM477.333 477.808C477.333 478.354 477.253 478.835 477.094 479.252C476.934 479.669 476.717 480.019 476.441 480.301C476.171 480.577 475.855 480.785 475.493 480.926C475.131 481.067 474.748 481.138 474.343 481.138C473.938 481.138 473.555 481.067 473.193 480.926C472.831 480.785 472.512 480.577 472.236 480.301C471.966 480.019 471.752 479.669 471.592 479.252C471.433 478.835 471.353 478.354 471.353 477.808C471.353 477.262 471.433 476.784 471.592 476.373C471.752 475.956 471.966 475.609 472.236 475.333C472.512 475.051 472.831 474.839 473.193 474.698C473.555 474.557 473.938 474.487 474.343 474.487C474.748 474.487 475.131 474.557 475.493 474.698C475.855 474.839 476.171 475.051 476.441 475.333C476.717 475.609 476.934 475.956 477.094 476.373C477.253 476.784 477.333 477.262 477.333 477.808ZM476.671 477.808C476.671 477.378 476.615 476.995 476.505 476.658C476.395 476.314 476.238 476.023 476.036 475.784C475.833 475.545 475.588 475.364 475.3 475.241C475.018 475.112 474.699 475.048 474.343 475.048C473.987 475.048 473.665 475.112 473.377 475.241C473.095 475.364 472.853 475.545 472.65 475.784C472.448 476.023 472.291 476.314 472.181 476.658C472.071 476.995 472.016 477.378 472.016 477.808C472.016 478.237 472.071 478.623 472.181 478.967C472.291 479.304 472.448 479.592 472.65 479.832C472.853 480.071 473.095 480.255 473.377 480.384C473.665 480.512 473.987 480.577 474.343 480.577C474.699 480.577 475.018 480.512 475.3 480.384C475.588 480.255 475.833 480.071 476.036 479.832C476.238 479.592 476.395 479.304 476.505 478.967C476.615 478.623 476.671 478.237 476.671 477.808ZM482.424 475.407C482.718 476.394 483.013 477.289 483.307 478.093C483.608 478.89 483.899 479.623 484.181 480.292C484.396 479.568 484.607 478.715 484.816 477.734C485.031 476.753 485.236 475.716 485.432 474.625H486.049C485.938 475.281 485.825 475.897 485.708 476.474C485.598 477.044 485.481 477.59 485.359 478.111C485.236 478.627 485.107 479.123 484.972 479.602C484.837 480.074 484.69 480.54 484.531 481H483.859C483.712 480.65 483.565 480.301 483.418 479.951C483.277 479.602 483.135 479.243 482.994 478.875C482.853 478.501 482.712 478.111 482.571 477.707C482.43 477.302 482.286 476.872 482.139 476.419C481.992 476.872 481.844 477.302 481.697 477.707C481.556 478.111 481.415 478.501 481.274 478.875C481.133 479.243 480.989 479.602 480.842 479.951C480.701 480.301 480.557 480.65 480.409 481H479.747C479.581 480.54 479.428 480.074 479.287 479.602C479.152 479.123 479.023 478.627 478.901 478.111C478.784 477.59 478.671 477.044 478.56 476.474C478.456 475.897 478.349 475.281 478.238 474.625H478.882C478.974 475.164 479.069 475.695 479.167 476.216C479.266 476.731 479.367 477.231 479.471 477.716C479.581 478.2 479.692 478.66 479.802 479.096C479.919 479.525 480.032 479.924 480.143 480.292C480.406 479.611 480.688 478.875 480.989 478.084C481.289 477.286 481.587 476.394 481.881 475.407H482.424ZM491.425 474.625V475.167H489.383V481H488.758V475.167H486.715V474.625H491.425ZM496.502 474.625H497.128V481H496.502V477.937H493.043V481H492.418V474.625H493.043V477.394H496.502V474.625Z" fill="#A1AEB7"/>
<g clip-path="url(#clip0_169_172)">
<path d="M541.39 436.467C541.856 436.287 542.31 436.058 542.752 435.78C543.193 435.493 543.598 435.138 543.966 434.712H544.775V443.213H543.635V436.295C543.537 436.385 543.414 436.479 543.267 436.577C543.128 436.675 542.972 436.769 542.801 436.859C542.637 436.949 542.461 437.035 542.273 437.117C542.093 437.198 541.917 437.268 541.746 437.325L541.39 436.467Z" fill="#A1AEB7"/>
<path d="M541.773 377.528C541.822 376.874 541.937 376.187 542.117 375.467C542.305 374.739 542.534 374.036 542.804 373.357C543.074 372.67 543.368 372.037 543.687 371.456C544.014 370.867 544.333 370.389 544.644 370.021H540.51V369.027H545.919V369.972C545.649 370.283 545.351 370.712 545.024 371.26C544.697 371.8 544.386 372.409 544.092 373.087C543.805 373.758 543.556 374.478 543.343 375.246C543.139 376.007 543.012 376.767 542.963 377.528H541.773ZM549.139 372.302C550.373 372.352 551.277 372.621 551.849 373.112C552.43 373.603 552.72 374.269 552.72 375.111C552.72 375.488 552.655 375.835 552.524 376.154C552.401 376.473 552.209 376.747 551.947 376.976C551.694 377.205 551.371 377.385 550.978 377.516C550.586 377.646 550.12 377.712 549.58 377.712C549.368 377.712 549.151 377.695 548.93 377.663C548.709 377.63 548.505 377.589 548.317 377.54C548.129 377.491 547.961 377.442 547.814 377.393C547.667 377.344 547.56 377.303 547.495 377.27L547.716 376.277C547.855 376.342 548.08 376.428 548.39 376.534C548.709 376.641 549.098 376.694 549.556 376.694C549.924 376.694 550.23 376.653 550.476 376.571C550.729 376.489 550.933 376.379 551.089 376.24C551.244 376.101 551.355 375.941 551.42 375.762C551.494 375.573 551.53 375.377 551.53 375.173C551.53 374.862 551.477 374.588 551.371 374.351C551.265 374.106 551.077 373.901 550.807 373.738C550.537 373.574 550.177 373.451 549.727 373.37C549.278 373.28 548.709 373.235 548.022 373.235C548.071 372.834 548.108 372.458 548.133 372.106C548.165 371.755 548.194 371.411 548.219 371.076C548.243 370.741 548.264 370.409 548.28 370.082C548.296 369.747 548.313 369.395 548.329 369.027H552.426V369.996H549.323C549.314 370.119 549.302 370.287 549.286 370.499C549.269 370.704 549.253 370.92 549.237 371.149C549.22 371.37 549.204 371.587 549.188 371.8C549.171 372.012 549.155 372.18 549.139 372.302Z" fill="#A1AEB7"/>
<path d="M540.915 303.165C541.381 302.985 541.835 302.756 542.276 302.478C542.718 302.191 543.123 301.836 543.491 301.41H544.3V309.911H543.159V302.993C543.061 303.083 542.939 303.177 542.791 303.275C542.652 303.373 542.497 303.467 542.325 303.557C542.162 303.647 541.986 303.733 541.798 303.815C541.618 303.896 541.442 303.966 541.27 304.023L540.915 303.165ZM549.139 304.686C550.373 304.735 551.277 305.004 551.849 305.495C552.43 305.986 552.72 306.652 552.72 307.494C552.72 307.871 552.655 308.218 552.524 308.537C552.401 308.856 552.209 309.13 551.947 309.359C551.694 309.588 551.371 309.768 550.978 309.899C550.586 310.029 550.12 310.095 549.58 310.095C549.368 310.095 549.151 310.079 548.93 310.046C548.709 310.013 548.505 309.972 548.317 309.923C548.129 309.874 547.961 309.825 547.814 309.776C547.667 309.727 547.56 309.686 547.495 309.653L547.716 308.66C547.855 308.725 548.08 308.811 548.39 308.917C548.709 309.024 549.098 309.077 549.556 309.077C549.924 309.077 550.23 309.036 550.476 308.954C550.729 308.872 550.933 308.762 551.089 308.623C551.244 308.484 551.355 308.324 551.42 308.145C551.494 307.956 551.53 307.76 551.53 307.556C551.53 307.245 551.477 306.971 551.371 306.734C551.265 306.489 551.077 306.284 550.807 306.121C550.537 305.957 550.177 305.834 549.727 305.753C549.278 305.663 548.709 305.618 548.022 305.618C548.071 305.217 548.108 304.841 548.133 304.489C548.165 304.138 548.194 303.794 548.219 303.459C548.243 303.124 548.264 302.792 548.28 302.465C548.296 302.13 548.313 301.778 548.329 301.41H552.426V302.379H549.323C549.314 302.502 549.302 302.67 549.286 302.882C549.269 303.087 549.253 303.304 549.237 303.533C549.22 303.753 549.204 303.97 549.188 304.183C549.171 304.395 549.155 304.563 549.139 304.686ZM554.235 305.655C554.235 304.232 554.484 303.136 554.983 302.367C555.49 301.599 556.189 301.214 557.08 301.214C557.972 301.214 558.667 301.599 559.166 302.367C559.673 303.136 559.926 304.232 559.926 305.655C559.926 307.077 559.673 308.173 559.166 308.942C558.667 309.711 557.972 310.095 557.08 310.095C556.189 310.095 555.49 309.711 554.983 308.942C554.484 308.173 554.235 307.077 554.235 305.655ZM558.724 305.655C558.724 305.188 558.695 304.747 558.638 304.33C558.589 303.913 558.499 303.549 558.368 303.238C558.246 302.927 558.078 302.682 557.865 302.502C557.653 302.314 557.391 302.22 557.08 302.22C556.77 302.22 556.508 302.314 556.295 302.502C556.083 302.682 555.911 302.927 555.78 303.238C555.657 303.549 555.567 303.913 555.51 304.33C555.461 304.747 555.437 305.188 555.437 305.655C555.437 306.121 555.461 306.562 555.51 306.979C555.567 307.396 555.657 307.76 555.78 308.071C555.911 308.382 556.083 308.631 556.295 308.819C556.508 308.999 556.77 309.089 557.08 309.089C557.391 309.089 557.653 308.999 557.865 308.819C558.078 308.631 558.246 308.382 558.368 308.071C558.499 307.76 558.589 307.396 558.638 306.979C558.695 306.562 558.724 306.121 558.724 305.655Z" fill="#A1AEB7"/>
<path d="M545.502 237.896C545.502 238.191 545.441 238.477 545.318 238.755C545.204 239.025 545.048 239.295 544.852 239.564C544.656 239.826 544.435 240.088 544.19 240.349C543.944 240.603 543.699 240.852 543.454 241.098C543.315 241.237 543.151 241.4 542.963 241.588C542.783 241.776 542.611 241.973 542.448 242.177C542.284 242.382 542.145 242.578 542.031 242.766C541.925 242.954 541.871 243.118 541.871 243.257H545.784V244.226H540.633C540.624 244.177 540.62 244.127 540.62 244.078C540.62 244.029 540.62 243.984 540.62 243.943C540.62 243.559 540.682 243.203 540.804 242.876C540.935 242.541 541.103 242.226 541.307 241.932C541.512 241.637 541.741 241.359 541.994 241.098C542.248 240.836 542.497 240.583 542.742 240.337C542.947 240.141 543.139 239.949 543.319 239.761C543.507 239.564 543.67 239.372 543.809 239.184C543.957 238.988 544.071 238.788 544.153 238.583C544.243 238.379 544.288 238.162 544.288 237.933C544.288 237.688 544.247 237.479 544.165 237.307C544.092 237.136 543.989 236.993 543.859 236.878C543.728 236.764 543.572 236.682 543.392 236.633C543.221 236.576 543.037 236.547 542.84 236.547C542.603 236.547 542.387 236.58 542.19 236.645C541.994 236.711 541.818 236.788 541.663 236.878C541.508 236.96 541.377 237.05 541.27 237.148C541.164 237.238 541.082 237.307 541.025 237.357L540.461 236.547C540.534 236.465 540.645 236.367 540.792 236.253C540.939 236.13 541.115 236.015 541.319 235.909C541.524 235.803 541.753 235.713 542.006 235.639C542.26 235.566 542.534 235.529 542.828 235.529C543.72 235.529 544.386 235.737 544.828 236.154C545.277 236.563 545.502 237.144 545.502 237.896ZM552.426 237.896C552.426 238.191 552.365 238.477 552.242 238.755C552.127 239.025 551.972 239.295 551.776 239.564C551.579 239.826 551.359 240.088 551.113 240.349C550.868 240.603 550.623 240.852 550.377 241.098C550.238 241.237 550.075 241.4 549.887 241.588C549.707 241.776 549.535 241.973 549.372 242.177C549.208 242.382 549.069 242.578 548.955 242.766C548.848 242.954 548.795 243.118 548.795 243.257H552.708V244.226H547.556C547.548 244.177 547.544 244.127 547.544 244.078C547.544 244.029 547.544 243.984 547.544 243.943C547.544 243.559 547.605 243.203 547.728 242.876C547.859 242.541 548.026 242.226 548.231 241.932C548.435 241.637 548.664 241.359 548.918 241.098C549.171 240.836 549.421 240.583 549.666 240.337C549.87 240.141 550.063 239.949 550.242 239.761C550.431 239.564 550.594 239.372 550.733 239.184C550.88 238.988 550.995 238.788 551.077 238.583C551.167 238.379 551.212 238.162 551.212 237.933C551.212 237.688 551.171 237.479 551.089 237.307C551.015 237.136 550.913 236.993 550.782 236.878C550.651 236.764 550.496 236.682 550.316 236.633C550.144 236.576 549.96 236.547 549.764 236.547C549.527 236.547 549.31 236.58 549.114 236.645C548.918 236.711 548.742 236.788 548.587 236.878C548.431 236.96 548.3 237.05 548.194 237.148C548.088 237.238 548.006 237.307 547.949 237.357L547.384 236.547C547.458 236.465 547.568 236.367 547.716 236.253C547.863 236.13 548.039 236.015 548.243 235.909C548.448 235.803 548.677 235.713 548.93 235.639C549.184 235.566 549.457 235.529 549.752 235.529C550.643 235.529 551.31 235.737 551.751 236.154C552.201 236.563 552.426 237.144 552.426 237.896ZM556.062 239C557.297 239.049 558.201 239.319 558.773 239.81C559.354 240.3 559.644 240.967 559.644 241.809C559.644 242.185 559.578 242.533 559.448 242.852C559.325 243.171 559.133 243.445 558.871 243.674C558.618 243.903 558.295 244.082 557.902 244.213C557.51 244.344 557.043 244.41 556.504 244.41C556.291 244.41 556.074 244.393 555.854 244.361C555.633 244.328 555.428 244.287 555.24 244.238C555.052 244.189 554.885 244.14 554.737 244.091C554.59 244.042 554.484 244.001 554.419 243.968L554.639 242.974C554.778 243.04 555.003 243.126 555.314 243.232C555.633 243.338 556.021 243.391 556.479 243.391C556.847 243.391 557.154 243.351 557.399 243.269C557.653 243.187 557.857 243.077 558.013 242.938C558.168 242.799 558.278 242.639 558.344 242.459C558.417 242.271 558.454 242.075 558.454 241.87C558.454 241.56 558.401 241.286 558.295 241.049C558.188 240.803 558 240.599 557.73 240.435C557.461 240.272 557.101 240.149 556.651 240.067C556.201 239.977 555.633 239.932 554.946 239.932C554.995 239.532 555.032 239.156 555.056 238.804C555.089 238.452 555.118 238.109 555.142 237.774C555.167 237.438 555.187 237.107 555.204 236.78C555.22 236.445 555.236 236.093 555.253 235.725H559.35V236.694H556.246C556.238 236.817 556.226 236.984 556.209 237.197C556.193 237.402 556.177 237.618 556.16 237.847C556.144 238.068 556.128 238.285 556.111 238.497C556.095 238.71 556.079 238.878 556.062 239Z" fill="#A1AEB7"/>
</g>
<path d="M356.204 113V103.298H362.056V104.46H357.562V107.386H361.552V108.534H357.562V113H356.204ZM365.931 105.566C366.043 105.566 366.169 105.575 366.309 105.594C366.458 105.603 366.603 105.622 366.743 105.65C366.883 105.669 367.009 105.692 367.121 105.72C367.242 105.739 367.331 105.757 367.387 105.776L367.163 106.91C367.06 106.873 366.888 106.831 366.645 106.784C366.412 106.728 366.108 106.7 365.735 106.7C365.492 106.7 365.25 106.728 365.007 106.784C364.774 106.831 364.62 106.863 364.545 106.882V113H363.243V106.028C363.551 105.916 363.934 105.813 364.391 105.72C364.848 105.617 365.362 105.566 365.931 105.566ZM375.069 109.36C375.069 109.939 374.985 110.461 374.817 110.928C374.649 111.395 374.411 111.796 374.103 112.132C373.805 112.468 373.445 112.729 373.025 112.916C372.605 113.093 372.148 113.182 371.653 113.182C371.159 113.182 370.701 113.093 370.281 112.916C369.861 112.729 369.497 112.468 369.189 112.132C368.891 111.796 368.657 111.395 368.489 110.928C368.321 110.461 368.237 109.939 368.237 109.36C368.237 108.791 368.321 108.273 368.489 107.806C368.657 107.33 368.891 106.924 369.189 106.588C369.497 106.252 369.861 105.995 370.281 105.818C370.701 105.631 371.159 105.538 371.653 105.538C372.148 105.538 372.605 105.631 373.025 105.818C373.445 105.995 373.805 106.252 374.103 106.588C374.411 106.924 374.649 107.33 374.817 107.806C374.985 108.273 375.069 108.791 375.069 109.36ZM373.711 109.36C373.711 108.539 373.525 107.89 373.151 107.414C372.787 106.929 372.288 106.686 371.653 106.686C371.019 106.686 370.515 106.929 370.141 107.414C369.777 107.89 369.595 108.539 369.595 109.36C369.595 110.181 369.777 110.835 370.141 111.32C370.515 111.796 371.019 112.034 371.653 112.034C372.288 112.034 372.787 111.796 373.151 111.32C373.525 110.835 373.711 110.181 373.711 109.36ZM376.901 105.93C377.2 105.855 377.592 105.776 378.077 105.692C378.572 105.608 379.141 105.566 379.785 105.566C380.252 105.566 380.644 105.631 380.961 105.762C381.279 105.883 381.545 106.065 381.759 106.308C381.825 106.261 381.927 106.196 382.067 106.112C382.207 106.028 382.38 105.949 382.585 105.874C382.791 105.79 383.019 105.72 383.271 105.664C383.523 105.599 383.794 105.566 384.083 105.566C384.643 105.566 385.101 105.65 385.455 105.818C385.81 105.977 386.085 106.205 386.281 106.504C386.487 106.803 386.622 107.157 386.687 107.568C386.762 107.979 386.799 108.427 386.799 108.912V113H385.497V109.192C385.497 108.763 385.474 108.394 385.427 108.086C385.39 107.778 385.311 107.521 385.189 107.316C385.077 107.111 384.919 106.961 384.713 106.868C384.517 106.765 384.261 106.714 383.943 106.714C383.505 106.714 383.141 106.775 382.851 106.896C382.571 107.008 382.38 107.111 382.277 107.204C382.352 107.447 382.408 107.713 382.445 108.002C382.483 108.291 382.501 108.595 382.501 108.912V113H381.199V109.192C381.199 108.763 381.176 108.394 381.129 108.086C381.083 107.778 380.999 107.521 380.877 107.316C380.765 107.111 380.607 106.961 380.401 106.868C380.205 106.765 379.953 106.714 379.645 106.714C379.515 106.714 379.375 106.719 379.225 106.728C379.076 106.737 378.931 106.751 378.791 106.77C378.661 106.779 378.539 106.793 378.427 106.812C378.315 106.831 378.241 106.845 378.203 106.854V113H376.901V105.93ZM399.878 111.656C399.785 111.432 399.659 111.147 399.5 110.802C399.351 110.457 399.188 110.083 399.01 109.682C398.833 109.281 398.642 108.87 398.436 108.45C398.24 108.021 398.054 107.619 397.876 107.246C397.699 106.863 397.531 106.523 397.372 106.224C397.223 105.925 397.102 105.697 397.008 105.538C396.906 106.639 396.822 107.834 396.756 109.122C396.691 110.401 396.635 111.693 396.588 113H395.258C395.296 112.16 395.338 111.315 395.384 110.466C395.431 109.607 395.482 108.767 395.538 107.946C395.604 107.115 395.669 106.308 395.734 105.524C395.809 104.74 395.888 103.998 395.972 103.298H397.162C397.414 103.709 397.685 104.194 397.974 104.754C398.264 105.314 398.553 105.902 398.842 106.518C399.132 107.125 399.412 107.736 399.682 108.352C399.953 108.959 400.2 109.514 400.424 110.018C400.648 109.514 400.896 108.959 401.166 108.352C401.437 107.736 401.717 107.125 402.006 106.518C402.296 105.902 402.585 105.314 402.874 104.754C403.164 104.194 403.434 103.709 403.686 103.298H404.876C405.194 106.425 405.432 109.659 405.59 113H404.26C404.214 111.693 404.158 110.401 404.092 109.122C404.027 107.834 403.943 106.639 403.84 105.538C403.747 105.697 403.621 105.925 403.462 106.224C403.313 106.523 403.15 106.863 402.972 107.246C402.795 107.619 402.604 108.021 402.398 108.45C402.202 108.87 402.016 109.281 401.838 109.682C401.661 110.083 401.493 110.457 401.334 110.802C401.185 111.147 401.064 111.432 400.97 111.656H399.878ZM410.1 112.062C410.408 112.062 410.678 112.057 410.912 112.048C411.154 112.029 411.355 112.001 411.514 111.964V109.794C411.42 109.747 411.266 109.71 411.052 109.682C410.846 109.645 410.594 109.626 410.296 109.626C410.1 109.626 409.89 109.64 409.666 109.668C409.451 109.696 409.25 109.757 409.064 109.85C408.886 109.934 408.737 110.055 408.616 110.214C408.494 110.363 408.434 110.564 408.434 110.816C408.434 111.283 408.583 111.609 408.882 111.796C409.18 111.973 409.586 112.062 410.1 112.062ZM409.988 105.538C410.51 105.538 410.949 105.608 411.304 105.748C411.668 105.879 411.957 106.07 412.172 106.322C412.396 106.565 412.554 106.859 412.648 107.204C412.741 107.54 412.788 107.913 412.788 108.324V112.874C412.676 112.893 412.517 112.921 412.312 112.958C412.116 112.986 411.892 113.014 411.64 113.042C411.388 113.07 411.112 113.093 410.814 113.112C410.524 113.14 410.235 113.154 409.946 113.154C409.535 113.154 409.157 113.112 408.812 113.028C408.466 112.944 408.168 112.813 407.916 112.636C407.664 112.449 407.468 112.207 407.328 111.908C407.188 111.609 407.118 111.25 407.118 110.83C407.118 110.429 407.197 110.083 407.356 109.794C407.524 109.505 407.748 109.271 408.028 109.094C408.308 108.917 408.634 108.786 409.008 108.702C409.381 108.618 409.773 108.576 410.184 108.576C410.314 108.576 410.45 108.585 410.59 108.604C410.73 108.613 410.86 108.632 410.982 108.66C411.112 108.679 411.224 108.697 411.318 108.716C411.411 108.735 411.476 108.749 411.514 108.758V108.394C411.514 108.179 411.49 107.969 411.444 107.764C411.397 107.549 411.313 107.363 411.192 107.204C411.07 107.036 410.902 106.905 410.688 106.812C410.482 106.709 410.212 106.658 409.876 106.658C409.446 106.658 409.068 106.691 408.742 106.756C408.424 106.812 408.186 106.873 408.028 106.938L407.874 105.86C408.042 105.785 408.322 105.715 408.714 105.65C409.106 105.575 409.53 105.538 409.988 105.538ZM417.638 105.566C417.75 105.566 417.876 105.575 418.016 105.594C418.165 105.603 418.31 105.622 418.45 105.65C418.59 105.669 418.716 105.692 418.828 105.72C418.949 105.739 419.038 105.757 419.094 105.776L418.87 106.91C418.767 106.873 418.595 106.831 418.352 106.784C418.119 106.728 417.815 106.7 417.442 106.7C417.199 106.7 416.957 106.728 416.714 106.784C416.481 106.831 416.327 106.863 416.252 106.882V113H414.95V106.028C415.258 105.916 415.641 105.813 416.098 105.72C416.555 105.617 417.069 105.566 417.638 105.566ZM423.514 113.168C422.926 113.168 422.408 113.075 421.96 112.888C421.522 112.701 421.148 112.44 420.84 112.104C420.542 111.768 420.318 111.371 420.168 110.914C420.019 110.447 419.944 109.934 419.944 109.374C419.944 108.814 420.024 108.301 420.182 107.834C420.35 107.367 420.584 106.966 420.882 106.63C421.181 106.285 421.545 106.019 421.974 105.832C422.413 105.636 422.898 105.538 423.43 105.538C423.757 105.538 424.084 105.566 424.41 105.622C424.737 105.678 425.05 105.767 425.348 105.888L425.054 106.994C424.858 106.901 424.63 106.826 424.368 106.77C424.116 106.714 423.846 106.686 423.556 106.686C422.828 106.686 422.268 106.915 421.876 107.372C421.494 107.829 421.302 108.497 421.302 109.374C421.302 109.766 421.344 110.125 421.428 110.452C421.522 110.779 421.662 111.059 421.848 111.292C422.044 111.525 422.292 111.707 422.59 111.838C422.889 111.959 423.253 112.02 423.682 112.02C424.028 112.02 424.34 111.987 424.62 111.922C424.9 111.857 425.12 111.787 425.278 111.712L425.46 112.804C425.386 112.851 425.278 112.897 425.138 112.944C424.998 112.981 424.84 113.014 424.662 113.042C424.485 113.079 424.294 113.107 424.088 113.126C423.892 113.154 423.701 113.168 423.514 113.168ZM426.858 113V102.36L428.16 102.136V105.86C428.403 105.767 428.66 105.697 428.93 105.65C429.21 105.594 429.486 105.566 429.756 105.566C430.335 105.566 430.816 105.65 431.198 105.818C431.581 105.977 431.884 106.205 432.108 106.504C432.342 106.793 432.505 107.143 432.598 107.554C432.692 107.965 432.738 108.417 432.738 108.912V113H431.436V109.192C431.436 108.744 431.404 108.361 431.338 108.044C431.282 107.727 431.184 107.47 431.044 107.274C430.904 107.078 430.718 106.938 430.484 106.854C430.251 106.761 429.962 106.714 429.616 106.714C429.476 106.714 429.332 106.723 429.182 106.742C429.033 106.761 428.888 106.784 428.748 106.812C428.618 106.831 428.496 106.854 428.384 106.882C428.282 106.91 428.207 106.933 428.16 106.952V113H426.858ZM443.515 105.776C443.515 106.112 443.445 106.439 443.305 106.756C443.174 107.064 442.997 107.372 442.773 107.68C442.549 107.979 442.297 108.277 442.017 108.576C441.737 108.865 441.457 109.15 441.177 109.43C441.018 109.589 440.831 109.775 440.617 109.99C440.411 110.205 440.215 110.429 440.029 110.662C439.842 110.895 439.683 111.119 439.553 111.334C439.431 111.549 439.371 111.735 439.371 111.894H443.837V113H437.957C437.947 112.944 437.943 112.888 437.943 112.832C437.943 112.776 437.943 112.725 437.943 112.678C437.943 112.239 438.013 111.833 438.153 111.46C438.302 111.077 438.493 110.718 438.727 110.382C438.96 110.046 439.221 109.729 439.511 109.43C439.8 109.131 440.085 108.842 440.365 108.562C440.598 108.338 440.817 108.119 441.023 107.904C441.237 107.68 441.424 107.461 441.583 107.246C441.751 107.022 441.881 106.793 441.975 106.56C442.077 106.327 442.129 106.079 442.129 105.818C442.129 105.538 442.082 105.3 441.989 105.104C441.905 104.908 441.788 104.745 441.639 104.614C441.489 104.483 441.312 104.39 441.107 104.334C440.911 104.269 440.701 104.236 440.477 104.236C440.206 104.236 439.959 104.273 439.735 104.348C439.511 104.423 439.31 104.511 439.133 104.614C438.955 104.707 438.806 104.81 438.685 104.922C438.563 105.025 438.47 105.104 438.405 105.16L437.761 104.236C437.845 104.143 437.971 104.031 438.139 103.9C438.307 103.76 438.507 103.629 438.741 103.508C438.974 103.387 439.235 103.284 439.525 103.2C439.814 103.116 440.127 103.074 440.463 103.074C441.48 103.074 442.241 103.312 442.745 103.788C443.258 104.255 443.515 104.917 443.515 105.776ZM445.579 108.142C445.579 106.518 445.864 105.267 446.433 104.39C447.012 103.513 447.81 103.074 448.827 103.074C449.844 103.074 450.638 103.513 451.207 104.39C451.786 105.267 452.075 106.518 452.075 108.142C452.075 109.766 451.786 111.017 451.207 111.894C450.638 112.771 449.844 113.21 448.827 113.21C447.81 113.21 447.012 112.771 446.433 111.894C445.864 111.017 445.579 109.766 445.579 108.142ZM450.703 108.142C450.703 107.61 450.67 107.106 450.605 106.63C450.549 106.154 450.446 105.739 450.297 105.384C450.157 105.029 449.966 104.749 449.723 104.544C449.48 104.329 449.182 104.222 448.827 104.222C448.472 104.222 448.174 104.329 447.931 104.544C447.688 104.749 447.492 105.029 447.343 105.384C447.203 105.739 447.1 106.154 447.035 106.63C446.979 107.106 446.951 107.61 446.951 108.142C446.951 108.674 446.979 109.178 447.035 109.654C447.1 110.13 447.203 110.545 447.343 110.9C447.492 111.255 447.688 111.539 447.931 111.754C448.174 111.959 448.472 112.062 448.827 112.062C449.182 112.062 449.48 111.959 449.723 111.754C449.966 111.539 450.157 111.255 450.297 110.9C450.446 110.545 450.549 110.13 450.605 109.654C450.67 109.178 450.703 108.674 450.703 108.142ZM459.319 105.776C459.319 106.112 459.249 106.439 459.109 106.756C458.979 107.064 458.801 107.372 458.577 107.68C458.353 107.979 458.101 108.277 457.821 108.576C457.541 108.865 457.261 109.15 456.981 109.43C456.823 109.589 456.636 109.775 456.421 109.99C456.216 110.205 456.02 110.429 455.833 110.662C455.647 110.895 455.488 111.119 455.357 111.334C455.236 111.549 455.175 111.735 455.175 111.894H459.641V113H453.761C453.752 112.944 453.747 112.888 453.747 112.832C453.747 112.776 453.747 112.725 453.747 112.678C453.747 112.239 453.817 111.833 453.957 111.46C454.107 111.077 454.298 110.718 454.531 110.382C454.765 110.046 455.026 109.729 455.315 109.43C455.605 109.131 455.889 108.842 456.169 108.562C456.403 108.338 456.622 108.119 456.827 107.904C457.042 107.68 457.229 107.461 457.387 107.246C457.555 107.022 457.686 106.793 457.779 106.56C457.882 106.327 457.933 106.079 457.933 105.818C457.933 105.538 457.887 105.3 457.793 105.104C457.709 104.908 457.593 104.745 457.443 104.614C457.294 104.483 457.117 104.39 456.911 104.334C456.715 104.269 456.505 104.236 456.281 104.236C456.011 104.236 455.763 104.273 455.539 104.348C455.315 104.423 455.115 104.511 454.937 104.614C454.76 104.707 454.611 104.81 454.489 104.922C454.368 105.025 454.275 105.104 454.209 105.16L453.565 104.236C453.649 104.143 453.775 104.031 453.943 103.9C454.111 103.76 454.312 103.629 454.545 103.508C454.779 103.387 455.04 103.284 455.329 103.2C455.619 103.116 455.931 103.074 456.267 103.074C457.285 103.074 458.045 103.312 458.549 103.788C459.063 104.255 459.319 104.917 459.319 105.776ZM461.244 109.64C461.421 109.229 461.664 108.753 461.972 108.212C462.28 107.661 462.625 107.097 463.008 106.518C463.4 105.939 463.815 105.37 464.254 104.81C464.702 104.25 465.15 103.746 465.598 103.298H466.844V109.458H467.992V110.522H466.844V113H465.584V110.522H461.244V109.64ZM465.584 104.838C465.304 105.137 465.019 105.473 464.73 105.846C464.45 106.21 464.174 106.593 463.904 106.994C463.633 107.395 463.376 107.806 463.134 108.226C462.9 108.646 462.69 109.057 462.504 109.458H465.584V104.838ZM471.078 111.404C471.087 111.479 471.092 111.553 471.092 111.628C471.092 111.693 471.092 111.763 471.092 111.838C471.092 112.426 471.003 113.005 470.826 113.574C470.658 114.153 470.425 114.703 470.126 115.226L469.118 114.904C469.351 114.428 469.505 113.943 469.58 113.448C469.655 112.963 469.692 112.505 469.692 112.076C469.692 111.955 469.687 111.838 469.678 111.726C469.678 111.614 469.673 111.507 469.664 111.404H471.078ZM482.957 103.298V104.474H479.905V113H478.547V104.474H475.495V103.298H482.957ZM485.61 113H484.308V105.72H485.61V113ZM484.952 104.404C484.718 104.404 484.518 104.329 484.35 104.18C484.191 104.021 484.111 103.811 484.111 103.55C484.111 103.289 484.191 103.083 484.35 102.934C484.518 102.775 484.718 102.696 484.952 102.696C485.185 102.696 485.381 102.775 485.54 102.934C485.708 103.083 485.792 103.289 485.792 103.55C485.792 103.811 485.708 104.021 485.54 104.18C485.381 104.329 485.185 104.404 484.952 104.404ZM490.033 113.14C489.23 113.121 488.661 112.949 488.325 112.622C487.989 112.295 487.821 111.787 487.821 111.096V102.36L489.123 102.136V110.886C489.123 111.101 489.141 111.278 489.179 111.418C489.216 111.558 489.277 111.67 489.361 111.754C489.445 111.838 489.557 111.903 489.697 111.95C489.837 111.987 490.009 112.02 490.215 112.048L490.033 113.14ZM493.861 113.14C493.058 113.121 492.489 112.949 492.153 112.622C491.817 112.295 491.649 111.787 491.649 111.096V102.36L492.951 102.136V110.886C492.951 111.101 492.969 111.278 493.007 111.418C493.044 111.558 493.105 111.67 493.189 111.754C493.273 111.838 493.385 111.903 493.525 111.95C493.665 111.987 493.837 112.02 494.043 112.048L493.861 113.14ZM506.795 108.142C506.795 108.982 506.664 109.715 506.403 110.34C506.142 110.956 505.773 111.469 505.297 111.88C504.821 112.281 504.252 112.585 503.589 112.79C502.926 112.986 502.198 113.084 501.405 113.084C501.013 113.084 500.579 113.065 500.103 113.028C499.636 113 499.212 112.939 498.829 112.846V103.438C499.212 103.345 499.636 103.284 500.103 103.256C500.579 103.219 501.013 103.2 501.405 103.2C502.198 103.2 502.926 103.303 503.589 103.508C504.252 103.704 504.821 104.007 505.297 104.418C505.773 104.819 506.142 105.333 506.403 105.958C506.664 106.574 506.795 107.302 506.795 108.142ZM501.517 111.894C502.805 111.894 503.766 111.567 504.401 110.914C505.036 110.251 505.353 109.327 505.353 108.142C505.353 106.957 505.036 106.037 504.401 105.384C503.766 104.721 502.805 104.39 501.517 104.39C501.134 104.39 500.836 104.395 500.621 104.404C500.416 104.413 500.271 104.423 500.187 104.432V111.852C500.271 111.861 500.416 111.871 500.621 111.88C500.836 111.889 501.134 111.894 501.517 111.894ZM510.998 112.062C511.306 112.062 511.577 112.057 511.81 112.048C512.053 112.029 512.253 112.001 512.412 111.964V109.794C512.319 109.747 512.165 109.71 511.95 109.682C511.745 109.645 511.493 109.626 511.194 109.626C510.998 109.626 510.788 109.64 510.564 109.668C510.349 109.696 510.149 109.757 509.962 109.85C509.785 109.934 509.635 110.055 509.514 110.214C509.393 110.363 509.332 110.564 509.332 110.816C509.332 111.283 509.481 111.609 509.78 111.796C510.079 111.973 510.485 112.062 510.998 112.062ZM510.886 105.538C511.409 105.538 511.847 105.608 512.202 105.748C512.566 105.879 512.855 106.07 513.07 106.322C513.294 106.565 513.453 106.859 513.546 107.204C513.639 107.54 513.686 107.913 513.686 108.324V112.874C513.574 112.893 513.415 112.921 513.21 112.958C513.014 112.986 512.79 113.014 512.538 113.042C512.286 113.07 512.011 113.093 511.712 113.112C511.423 113.14 511.133 113.154 510.844 113.154C510.433 113.154 510.055 113.112 509.71 113.028C509.365 112.944 509.066 112.813 508.814 112.636C508.562 112.449 508.366 112.207 508.226 111.908C508.086 111.609 508.016 111.25 508.016 110.83C508.016 110.429 508.095 110.083 508.254 109.794C508.422 109.505 508.646 109.271 508.926 109.094C509.206 108.917 509.533 108.786 509.906 108.702C510.279 108.618 510.671 108.576 511.082 108.576C511.213 108.576 511.348 108.585 511.488 108.604C511.628 108.613 511.759 108.632 511.88 108.66C512.011 108.679 512.123 108.697 512.216 108.716C512.309 108.735 512.375 108.749 512.412 108.758V108.394C512.412 108.179 512.389 107.969 512.342 107.764C512.295 107.549 512.211 107.363 512.09 107.204C511.969 107.036 511.801 106.905 511.586 106.812C511.381 106.709 511.11 106.658 510.774 106.658C510.345 106.658 509.967 106.691 509.64 106.756C509.323 106.812 509.085 106.873 508.926 106.938L508.772 105.86C508.94 105.785 509.22 105.715 509.612 105.65C510.004 105.575 510.429 105.538 510.886 105.538ZM517.067 105.72H519.825V106.812H517.067V110.172C517.067 110.536 517.095 110.839 517.151 111.082C517.207 111.315 517.291 111.502 517.403 111.642C517.515 111.773 517.655 111.866 517.823 111.922C517.991 111.978 518.187 112.006 518.411 112.006C518.803 112.006 519.115 111.964 519.349 111.88C519.591 111.787 519.759 111.721 519.853 111.684L520.105 112.762C519.974 112.827 519.745 112.907 519.419 113C519.092 113.103 518.719 113.154 518.299 113.154C517.804 113.154 517.393 113.093 517.067 112.972C516.749 112.841 516.493 112.65 516.297 112.398C516.101 112.146 515.961 111.838 515.877 111.474C515.802 111.101 515.765 110.671 515.765 110.186V103.69L517.067 103.466V105.72ZM520.939 109.374C520.939 108.73 521.032 108.17 521.219 107.694C521.405 107.209 521.653 106.807 521.961 106.49C522.269 106.173 522.623 105.935 523.025 105.776C523.426 105.617 523.837 105.538 524.257 105.538C525.237 105.538 525.988 105.846 526.511 106.462C527.033 107.069 527.295 107.997 527.295 109.248C527.295 109.304 527.295 109.379 527.295 109.472C527.295 109.556 527.29 109.635 527.281 109.71H522.297C522.353 110.466 522.572 111.04 522.955 111.432C523.337 111.824 523.935 112.02 524.747 112.02C525.204 112.02 525.587 111.983 525.895 111.908C526.212 111.824 526.45 111.745 526.609 111.67L526.791 112.762C526.632 112.846 526.352 112.935 525.951 113.028C525.559 113.121 525.111 113.168 524.607 113.168C523.972 113.168 523.421 113.075 522.955 112.888C522.497 112.692 522.119 112.426 521.821 112.09C521.522 111.754 521.298 111.357 521.149 110.9C521.009 110.433 520.939 109.925 520.939 109.374ZM525.937 108.66C525.946 108.072 525.797 107.591 525.489 107.218C525.19 106.835 524.775 106.644 524.243 106.644C523.944 106.644 523.678 106.705 523.445 106.826C523.221 106.938 523.029 107.087 522.871 107.274C522.712 107.461 522.586 107.675 522.493 107.918C522.409 108.161 522.353 108.408 522.325 108.66H525.937Z" fill="#A1AEB7"/>
<path d="M-156.283 441.264V440.344H515.747V441.264H-156.283Z" fill="#C2D1D9"/>
<path d="M-156.283 374.107V373.188H515.747V374.107H-156.283Z" fill="#C2D1D9"/>
<path d="M-156.283 307.87V306.95H515.747V307.87H-156.283Z" fill="#C2D1D9"/>
<path d="M-156.283 240.713V239.793H515.747V240.713H-156.283Z" fill="#C2D1D9"/>
<path d="M-156.283 173.556V172.636H515.747V173.556H-156.283Z" fill="#C2D1D9"/>
<path fill-rule="evenodd" clip-rule="evenodd" d="M-154.175 418.394L-146.72 411.872H-136.951L-130.243 403.248L-116.72 405.179L-109.904 396.416H-97.4563L-89.8549 389.765L-73.8431 394.469L-63.0361 396.434L-53.1019 394.447L-41.6005 389.655H-28.4795L-17.7608 394.527L6.31749 389.711L13.9548 394.484L26.9186 394.476L62.4921 389.668L75.9508 392.552L129.34 392.539L146.727 389.641L161.153 386.757H168.683L182.316 389.678L195.353 386.67L206.233 375.784L215.893 364.192L222.54 356.596L232.191 350.805L241.659 340.391L255.291 340.229C259.448 337.457 261.517 335.388 261.517 333.629C261.517 332.517 262.435 329.125 264.247 323.665L272.691 318.974L283.734 309.772L288.786 313.981L291.819 319.037L307.451 322.164L315.467 306.132L324.815 293.979L344.278 292.032L348.348 282.874L354.804 271.808H362.404L372.351 260.866L381.517 251.701L373.104 235.809L388.481 232.926L383.762 222.544H395.047L406.946 216.586L418.668 208.771L444.083 176.095V232.801L454.81 238.164L467.086 228.958L469.682 222.9L478.518 227.312L493.844 233.059L497.802 236.028L513.512 237.992L513.752 236.075L498.551 234.175L494.781 231.348L479.244 225.521L468.713 220.256L465.514 227.722L454.606 235.902L446.015 231.607V170.465L417.336 207.338L405.925 214.945L394.591 220.612H380.761L385.702 231.481L370.168 234.394L379.142 251.344L370.953 259.533L361.549 269.876H353.694L346.604 282.041L342.969 290.222L323.793 292.139L313.822 305.101L306.383 319.98L293.036 317.31L290.274 312.707L283.734 307.257L271.594 317.373L262.532 322.698C260.558 328.621 259.585 332.189 259.585 333.629C259.585 334.427 257.871 336.159 254.461 338.459H240.805L230.953 349.295L221.286 355.096L214.424 362.938L204.777 374.513L194.379 384.912L182.301 387.699L168.887 384.825H160.962L146.379 387.741L129.101 390.621H76.1555L62.5673 387.709L26.7243 392.552H14.5089L6.69087 387.666L-17.5287 392.51L-28.061 387.723H-41.9869L-53.6684 392.59L-63.0534 394.467L-73.447 392.577L-90.3282 387.612L-98.1822 394.484H-110.849L-117.557 403.108L-131.08 401.177L-137.896 409.94H-147.446L-155.447 416.94L-154.175 418.394ZM-53.6684 392.59L-53.5746 392.571L-53.7567 392.627L-53.6684 392.59ZM194.379 384.912L194.649 384.85L194.183 385.108L194.379 384.912ZM394.387 220.714L394.819 220.612H394.591L394.387 220.714Z" fill="#424B5A"/>
<path d="M-148.241 425.096L-149.029 422.935L-125.667 414.421L-112.931 418.697L-72.5757 422.826L-51.3271 406.681L-20.1107 410.143L44.9587 351.955H83.7718L93.7931 363.003L102.815 369.425L155.807 331.778L171.558 347.345L231.15 286.826L280.761 348.034L313.787 362.718H334.497L395.141 331.973L423.116 347.496L457.709 304.236L500.153 261.318L512.753 182.635L515.024 182.999L502.307 262.41L459.467 305.72L423.699 350.449L395.093 334.576L335.047 365.018H313.299L279.322 349.911L230.983 290.273L171.58 350.6L155.564 334.771L102.814 372.248L92.2567 364.733L82.7529 354.255H45.8371L-19.3433 412.542L-50.6673 409.068L-71.9069 425.206L-113.42 420.959L-125.635 416.858L-148.241 425.096Z" fill="white"/>
<g filter="url(#filter0_f_169_172)">
<circle cx="515" cy="177" r="8" fill="#D9D9D9"/>
</g>
<circle cx="515" cy="177" r="8" fill="#D9D9D9"/>
<mask id="path-19-inside-1_169_172" fill="white">
<path d="M-1 0H100V588H-1V0Z"/>
</mask>
<path d="M-1 0H100V588H-1V0Z" fill="#0C0C0C" fill-opacity="0.9"/>
<path d="M99 0V588H101V0H99Z" fill="white" mask="url(#path-19-inside-1_169_172)"/>
<path d="M537 156H663V194H537V184.5L527 175L537 165.5V156Z" fill="#D9D9D9"/>
<path d="M555.093 174.982V176.974H552.545V179.539H550.536V176.974H547.988V174.982H550.536V172.434H552.545V174.982H555.093ZM562.771 174.866C563.353 175.142 563.809 175.535 564.141 176.044C564.479 176.554 564.647 177.124 564.647 177.754C564.647 178.767 564.238 179.597 563.419 180.245C562.6 180.887 561.546 181.208 560.256 181.208C559.421 181.208 558.618 181.061 557.849 180.768C557.08 180.469 556.444 180.065 555.94 179.556L557.285 177.821C557.622 178.175 558.043 178.452 558.546 178.651C559.05 178.845 559.565 178.941 560.09 178.941C560.727 178.941 561.241 178.8 561.634 178.518C562.033 178.236 562.232 177.873 562.232 177.431C562.232 176.982 562.041 176.617 561.659 176.335C561.277 176.047 560.788 175.903 560.19 175.903H558.488V173.878H560.19C560.705 173.878 561.128 173.759 561.46 173.521C561.792 173.283 561.958 172.981 561.958 172.616C561.958 172.24 561.775 171.933 561.41 171.695C561.045 171.451 560.572 171.33 559.991 171.33C559.531 171.33 559.089 171.407 558.663 171.562C558.236 171.711 557.885 171.922 557.608 172.193L556.347 170.491C556.806 170.049 557.384 169.7 558.082 169.445C558.784 169.191 559.509 169.063 560.256 169.063C561.468 169.063 562.456 169.362 563.22 169.96C563.989 170.558 564.374 171.33 564.374 172.276C564.374 172.824 564.23 173.325 563.942 173.778C563.66 174.227 563.27 174.589 562.771 174.866ZM570.516 181.208C569.625 181.208 568.828 180.953 568.125 180.444C567.428 179.929 566.883 179.21 566.49 178.286C566.103 177.361 565.909 176.31 565.909 175.131C565.909 173.953 566.103 172.901 566.49 171.977C566.883 171.053 567.428 170.336 568.125 169.827C568.828 169.318 569.625 169.063 570.516 169.063C571.413 169.063 572.209 169.318 572.907 169.827C573.61 170.336 574.155 171.053 574.542 171.977C574.929 172.896 575.123 173.947 575.123 175.131C575.123 176.316 574.929 177.37 574.542 178.294C574.155 179.213 573.61 179.929 572.907 180.444C572.209 180.953 571.413 181.208 570.516 181.208ZM570.516 178.941C571.164 178.941 571.689 178.587 572.093 177.879C572.503 177.171 572.708 176.255 572.708 175.131C572.708 174.008 572.503 173.095 572.093 172.392C571.689 171.684 571.164 171.33 570.516 171.33C569.874 171.33 569.348 171.684 568.939 172.392C568.529 173.1 568.325 174.014 568.325 175.131C568.325 176.249 568.529 177.165 568.939 177.879C569.348 178.587 569.874 178.941 570.516 178.941ZM581.291 181.208C580.4 181.208 579.603 180.953 578.9 180.444C578.203 179.929 577.658 179.21 577.265 178.286C576.877 177.361 576.684 176.31 576.684 175.131C576.684 173.953 576.877 172.901 577.265 171.977C577.658 171.053 578.203 170.336 578.9 169.827C579.603 169.318 580.4 169.063 581.291 169.063C582.187 169.063 582.984 169.318 583.681 169.827C584.384 170.336 584.929 171.053 585.316 171.977C585.704 172.896 585.897 173.947 585.897 175.131C585.897 176.316 585.704 177.37 585.316 178.294C584.929 179.213 584.384 179.929 583.681 180.444C582.984 180.953 582.187 181.208 581.291 181.208ZM581.291 178.941C581.938 178.941 582.464 178.587 582.868 177.879C583.277 177.171 583.482 176.255 583.482 175.131C583.482 174.008 583.277 173.095 582.868 172.392C582.464 171.684 581.938 171.33 581.291 171.33C580.649 171.33 580.123 171.684 579.713 172.392C579.304 173.1 579.099 174.014 579.099 175.131C579.099 176.249 579.304 177.165 579.713 177.879C580.123 178.587 580.649 178.941 581.291 178.941Z" fill="black"/>
<path opacity="0.5" d="M598.379 170.341H599.965V180H598.687V172.289L595.412 177.97H594.701L591.42 172.289V180H590.135V170.341H591.755L595.063 176.083L598.379 170.341ZM609.139 176.432C609.139 176.5 609.127 176.678 609.104 176.965H602.959C603.082 177.594 603.381 178.102 603.854 178.489C604.333 178.872 604.916 179.063 605.604 179.063C606.115 179.063 606.584 178.956 607.013 178.742C607.441 178.523 607.776 178.243 608.018 177.901L608.845 178.612C608.485 179.095 608.018 179.476 607.443 179.754C606.874 180.032 606.247 180.171 605.563 180.171C604.447 180.171 603.517 179.811 602.774 179.091C602.032 178.371 601.66 177.475 601.66 176.404C601.66 175.712 601.822 175.083 602.146 174.518C602.474 173.948 602.925 173.501 603.499 173.178C604.073 172.854 604.711 172.692 605.413 172.692C606.11 172.692 606.744 172.854 607.313 173.178C607.883 173.501 608.33 173.95 608.653 174.524C608.977 175.094 609.139 175.73 609.139 176.432ZM605.399 173.8C604.78 173.8 604.244 173.993 603.793 174.381C603.342 174.764 603.059 175.26 602.945 175.871H607.86C607.746 175.251 607.464 174.752 607.013 174.374C606.562 173.991 606.024 173.8 605.399 173.8ZM619.208 172.692C620.028 172.692 620.682 172.938 621.17 173.431C621.662 173.918 621.908 174.572 621.908 175.393V180H620.705V175.728C620.705 175.158 620.534 174.704 620.192 174.367C619.855 174.025 619.404 173.854 618.839 173.854C618.256 173.854 617.786 174.028 617.431 174.374C617.075 174.72 616.897 175.181 616.897 175.755V180H615.694V175.728C615.694 175.158 615.523 174.704 615.182 174.367C614.844 174.025 614.393 173.854 613.828 173.854C613.245 173.854 612.775 174.028 612.42 174.374C612.064 174.72 611.887 175.181 611.887 175.755V180H610.684V172.863H611.887V173.827C612.429 173.071 613.208 172.692 614.225 172.692C614.781 172.692 615.266 172.815 615.681 173.062C616.095 173.308 616.408 173.652 616.617 174.094C616.886 173.643 617.242 173.296 617.684 173.055C618.13 172.813 618.638 172.692 619.208 172.692ZM627.821 172.692C628.842 172.692 629.694 173.05 630.378 173.766C631.062 174.481 631.403 175.37 631.403 176.432C631.403 177.493 631.062 178.382 630.378 179.098C629.694 179.813 628.842 180.171 627.821 180.171C627.238 180.171 626.707 180.043 626.229 179.788C625.75 179.528 625.358 179.171 625.053 178.715V180H623.85V169.917H625.053V174.148C625.358 173.693 625.75 173.337 626.229 173.082C626.707 172.822 627.238 172.692 627.821 172.692ZM627.596 179.009C628.329 179.009 628.94 178.763 629.428 178.271C629.915 177.778 630.159 177.165 630.159 176.432C630.159 175.698 629.915 175.085 629.428 174.593C628.94 174.101 628.329 173.854 627.596 173.854C626.867 173.854 626.26 174.101 625.777 174.593C625.294 175.085 625.053 175.698 625.053 176.432C625.053 177.165 625.294 177.778 625.777 178.271C626.26 178.763 626.867 179.009 627.596 179.009ZM640.023 176.432C640.023 176.5 640.012 176.678 639.989 176.965H633.844C633.967 177.594 634.265 178.102 634.739 178.489C635.218 178.872 635.801 179.063 636.489 179.063C637 179.063 637.469 178.956 637.897 178.742C638.326 178.523 638.661 178.243 638.902 177.901L639.729 178.612C639.369 179.095 638.902 179.476 638.328 179.754C637.758 180.032 637.132 180.171 636.448 180.171C635.332 180.171 634.402 179.811 633.659 179.091C632.916 178.371 632.545 177.475 632.545 176.404C632.545 175.712 632.707 175.083 633.03 174.518C633.358 173.948 633.81 173.501 634.384 173.178C634.958 172.854 635.596 172.692 636.298 172.692C636.995 172.692 637.629 172.854 638.198 173.178C638.768 173.501 639.215 173.95 639.538 174.524C639.862 175.094 640.023 175.73 640.023 176.432ZM636.284 173.8C635.664 173.8 635.129 173.993 634.678 174.381C634.227 174.764 633.944 175.26 633.83 175.871H638.745C638.631 175.251 638.349 174.752 637.897 174.374C637.446 173.991 636.909 173.8 636.284 173.8ZM645.205 172.747H645.444V173.991H645.205C644.453 173.991 643.858 174.212 643.421 174.654C642.988 175.092 642.771 175.684 642.771 176.432V180H641.568V172.863H642.771V174.094C643.332 173.196 644.143 172.747 645.205 172.747ZM649.02 180.171C647.867 180.171 646.9 179.797 646.121 179.05L646.791 178.182C647.374 178.779 648.11 179.077 648.999 179.077C649.482 179.077 649.879 178.988 650.188 178.811C650.498 178.628 650.653 178.38 650.653 178.065C650.653 177.933 650.619 177.815 650.551 177.71C650.487 177.601 650.41 177.512 650.318 177.443C650.232 177.375 650.1 177.309 649.922 177.245C649.749 177.177 649.596 177.127 649.464 177.095C649.336 177.058 649.154 177.01 648.917 176.951C648.698 176.896 648.525 176.853 648.397 176.821C648.27 176.785 648.104 176.73 647.898 176.657C647.698 176.584 647.534 176.514 647.406 176.445C647.283 176.377 647.146 176.288 646.996 176.179C646.85 176.065 646.734 175.946 646.647 175.823C646.565 175.696 646.495 175.545 646.436 175.372C646.381 175.194 646.354 175.001 646.354 174.791C646.354 174.344 646.481 173.959 646.736 173.636C646.992 173.312 647.322 173.075 647.728 172.925C648.133 172.77 648.587 172.692 649.088 172.692C650.118 172.692 650.991 173.018 651.706 173.67L651.029 174.552C650.505 174.041 649.863 173.786 649.102 173.786C648.669 173.786 648.309 173.868 648.021 174.032C647.734 174.196 647.591 174.426 647.591 174.723C647.591 174.859 647.625 174.982 647.693 175.092C647.762 175.197 647.839 175.283 647.926 175.352C648.017 175.42 648.154 175.488 648.336 175.557C648.518 175.62 648.671 175.671 648.794 175.707C648.922 175.739 649.108 175.785 649.354 175.844C649.569 175.894 649.74 175.937 649.867 175.974C649.999 176.006 650.166 176.056 650.366 176.124C650.567 176.192 650.729 176.261 650.852 176.329C650.979 176.393 651.116 176.479 651.262 176.589C651.408 176.698 651.521 176.814 651.604 176.938C651.686 177.061 651.754 177.211 651.809 177.389C651.868 177.562 651.897 177.751 651.897 177.956C651.897 178.644 651.626 179.187 651.084 179.583C650.542 179.975 649.854 180.171 649.02 180.171Z" fill="black"/>
<defs>
<filter id="filter0_f_169_172" x="493" y="155" width="44" height="44" filterUnits="userSpaceOnUse" color-interpolation-filters="sRGB">
<feFlood flood-opacity="0" result="BackgroundImageFix"/>
<feBlend mode="normal" in="SourceGraphic" in2="BackgroundImageFix" result="shape"/>
<feGaussianBlur stdDeviation="7" result="effect1_foregroundBlur_169_172"/>
</filter>
<clipPath id="clip0_169_172">
<rect width="55.1976" height="285.187" fill="white" transform="translate(539.329 162.609)"/>
</clipPath>
</defs>
</svg>
