<svg width="1229" height="80" viewBox="0 0 1229 80" fill="none" xmlns="http://www.w3.org/2000/svg">
<path opacity="0.1" d="M0.38 80V0.799997H63.19C66.1967 0.799997 68.91 1.53333 71.33 2.99999C73.8233 4.46666 75.8033 6.44667 77.27 8.94C78.81 11.36 79.58 14.0733 79.58 17.08V63.72C79.58 66.6533 78.81 69.3667 77.27 71.86C75.8033 74.3533 73.8233 76.3333 71.33 77.8C68.91 79.2667 66.1967 80 63.19 80H0.38ZM17.32 62.84H62.31V17.96H17.32V62.84ZM89.1483 80V0.799997H105.978V80H89.1483ZM131.484 80C128.55 80 125.837 79.2667 123.344 77.8C120.85 76.3333 118.87 74.3533 117.404 71.86C115.937 69.3667 115.204 66.6533 115.204 63.72V56.35H132.254V62.84H177.134V48.98H131.484C128.55 48.98 125.837 48.2467 123.344 46.78C120.85 45.3133 118.87 43.37 117.404 40.95C115.937 38.4567 115.204 35.7067 115.204 32.7V17.08C115.204 14.0733 115.937 11.36 117.404 8.94C118.87 6.44667 120.85 4.46666 123.344 2.99999C125.837 1.53333 128.55 0.799997 131.484 0.799997H178.124C181.057 0.799997 183.734 1.53333 186.154 2.99999C188.647 4.46666 190.627 6.44667 192.094 8.94C193.634 11.36 194.404 14.0733 194.404 17.08V24.45H177.134V17.96H132.254V31.82H178.124C181.057 31.82 183.734 32.5533 186.154 34.02C188.647 35.4867 190.627 37.4667 192.094 39.96C193.634 42.38 194.404 45.0933 194.404 48.1V63.72C194.404 66.6533 193.634 69.3667 192.094 71.86C190.627 74.3533 188.647 76.3333 186.154 77.8C183.734 79.2667 181.057 80 178.124 80H131.484ZM222.797 80C219.791 80 217.041 79.2667 214.547 77.8C212.127 76.3333 210.184 74.39 208.717 71.97C207.251 69.4767 206.517 66.7267 206.517 63.72V17.08C206.517 14.0733 207.251 11.36 208.717 8.94C210.184 6.44667 212.127 4.46666 214.547 2.99999C217.041 1.53333 219.791 0.799997 222.797 0.799997H285.497V17.96H227.197C226.024 17.96 225.107 18.2533 224.447 18.84C223.861 19.4267 223.567 20.3433 223.567 21.59V59.21C223.567 60.3833 223.861 61.3 224.447 61.96C225.107 62.5467 226.024 62.84 227.197 62.84H285.497V80H222.797ZM313.027 80C310.093 80 307.38 79.2667 304.887 77.8C302.393 76.3333 300.413 74.3533 298.947 71.86C297.48 69.3667 296.747 66.6533 296.747 63.72V17.08C296.747 14.0733 297.48 11.36 298.947 8.94C300.413 6.44667 302.393 4.46666 304.887 2.99999C307.38 1.53333 310.093 0.799997 313.027 0.799997H359.667C362.6 0.799997 365.277 1.53333 367.697 2.99999C370.19 4.46666 372.17 6.44667 373.637 8.94C375.177 11.36 375.947 14.0733 375.947 17.08V63.72C375.947 66.6533 375.177 69.3667 373.637 71.86C372.17 74.3533 370.19 76.3333 367.697 77.8C365.277 79.2667 362.6 80 359.667 80H313.027ZM313.797 62.84H358.677V17.96H313.797V62.84ZM449.55 80L426.56 52.61H448.89L467.15 74.17V80H449.55ZM388.06 80V0.909995H450.87C453.877 0.909995 456.59 1.64333 459.01 3.10999C461.504 4.57666 463.484 6.55666 464.95 9.05C466.49 11.5433 467.26 14.2567 467.26 17.19V37.65C467.26 40.5833 466.49 43.2967 464.95 45.79C463.484 48.2833 461.504 50.2633 459.01 51.73C456.59 53.1967 453.877 53.93 450.87 53.93L405.11 54.04V80H388.06ZM405.11 36.77H449.99V17.96H405.11V36.77ZM479.052 80V0.799997H541.862C544.869 0.799997 547.582 1.53333 550.002 2.99999C552.495 4.46666 554.475 6.44667 555.942 8.94C557.482 11.36 558.252 14.0733 558.252 17.08V63.72C558.252 66.6533 557.482 69.3667 555.942 71.86C554.475 74.3533 552.495 76.3333 550.002 77.8C547.582 79.2667 544.869 80 541.862 80H479.052ZM495.992 62.84H540.982V17.96H495.992V62.84ZM622.299 80C619.293 80 616.543 79.2667 614.049 77.8C611.629 76.3333 609.686 74.39 608.219 71.97C606.753 69.4767 606.019 66.7267 606.019 63.72V17.08C606.019 14.0733 606.753 11.36 608.219 8.94C609.686 6.44667 611.629 4.46666 614.049 2.99999C616.543 1.53333 619.293 0.799997 622.299 0.799997H684.999V17.96H626.699C625.526 17.96 624.609 18.2533 623.949 18.84C623.363 19.4267 623.069 20.3433 623.069 21.59V59.21C623.069 60.3833 623.363 61.3 623.949 61.96C624.609 62.5467 625.526 62.84 626.699 62.84H684.999V80H622.299ZM696.579 80V0.799997H713.629V31.82H760.379V0.799997H777.429V80H760.379V48.98H713.629V80H696.579ZM790.253 80V17.08C790.253 14.0733 790.986 11.36 792.453 8.94C793.92 6.44667 795.9 4.46666 798.393 2.99999C800.886 1.53333 803.6 0.799997 806.533 0.799997H853.063C856.07 0.799997 858.783 1.53333 861.203 2.99999C863.696 4.46666 865.676 6.44667 867.143 8.94C868.683 11.36 869.453 14.0733 869.453 17.08V80H852.183V54.48H807.303V80H790.253ZM807.303 37.32H852.183V17.96H807.303V37.32ZM881.986 80V0.799997H899.586L943.916 53.6V0.799997H961.186V80H943.586L899.036 26.98V80H881.986ZM973.51 80V0.799997H991.11L1035.44 53.6V0.799997H1052.71V80H1035.11L990.56 26.98V80H973.51ZM1065.25 80V0.799997H1138.4V17.96H1082.52V31.82H1127.51V48.98H1082.52V62.84H1138.4V80H1065.25ZM1149.36 80V0.689998H1166.41V62.84H1228.56V80H1149.36Z" fill="white"/>
</svg>
