<svg width="44" height="44" viewBox="0 0 44 44" fill="none" xmlns="http://www.w3.org/2000/svg">
<rect width="44" height="44" rx="22" fill="#B9B9B9"/>
<path d="M29.7136 27.5628C28.8712 27.3366 27.979 27.3914 27.1778 27.7186L24.9869 24.8808C25.3198 24.4699 25.5619 23.995 25.6979 23.4858C25.721 23.3995 25.7441 23.3132 25.7574 23.2255L27.4716 23.1334C27.7685 24.0201 28.3798 24.7755 29.1933 25.2611C30.0069 25.7468 30.9684 25.9302 31.9016 25.7778C32.8348 25.6253 33.6773 25.1473 34.2748 24.4312C34.8723 23.7151 35.1847 22.8088 35.1548 21.8785C35.125 20.9481 34.7549 20.056 34.1123 19.3654C33.4697 18.6748 32.5976 18.232 31.6559 18.1182C30.7141 18.0044 29.7657 18.2271 28.9843 18.7456C28.2029 19.2641 27.641 20.0436 27.4013 20.9414C27.3782 21.0277 27.355 21.114 27.3417 21.2017L25.6275 21.2938C25.4221 20.6782 25.0636 20.1211 24.5847 19.6735C24.1057 19.2259 23.5215 18.9019 22.8854 18.731C22.6749 18.6751 22.4603 18.636 22.2437 18.6141L21.9114 16.5945C22.7626 16.2325 23.4527 15.5849 23.8592 14.7665C24.2658 13.9481 24.3625 13.0118 24.1324 12.1234C23.9023 11.235 23.3602 10.452 22.602 9.9132C21.8439 9.37435 20.9188 9.11446 19.9907 9.17958C19.0626 9.2447 18.1914 9.63062 17.5315 10.269C16.8716 10.9073 16.4657 11.7568 16.3856 12.6669C16.3056 13.5771 16.5566 14.489 17.0943 15.2412C17.6319 15.9933 18.4213 16.5371 19.3227 16.7761C19.5332 16.832 19.7478 16.8711 19.9644 16.893L20.298 18.908C19.4633 19.2584 18.7816 19.8838 18.3694 20.6774C17.9571 21.471 17.8399 22.3835 18.0377 23.2589L14.2604 25.1026C13.6259 24.3872 12.7498 23.9208 11.7964 23.7909C10.843 23.661 9.87773 23.8765 9.08155 24.397C8.28538 24.9176 7.71294 25.7073 7.47153 26.6183C7.23013 27.5293 7.33634 28.499 7.77025 29.3456C8.20416 30.1922 8.93598 30.8577 9.82853 31.2171C10.7211 31.5766 11.7131 31.6055 12.6186 31.2984C13.5242 30.9912 14.2811 30.3692 14.7474 29.5488C15.2138 28.7284 15.3576 27.766 15.1519 26.8419L18.9292 24.9982C19.4753 25.6132 20.2031 26.0455 21.0092 26.2336C21.8154 26.4218 22.6587 26.3562 23.4193 26.0463L25.6102 28.884C25.2783 29.2936 25.0367 29.7669 24.9005 30.2743C24.7027 31.0127 24.7329 31.7944 24.9874 32.5206C25.2418 33.2467 25.7091 33.8848 26.3301 34.354C26.951 34.8232 27.6979 35.1026 28.4761 35.1567C29.2543 35.2109 30.0289 35.0373 30.702 34.6581C31.3751 34.2789 31.9165 33.711 32.2577 33.0263C32.5988 32.3415 32.7244 31.5707 32.6186 30.8112C32.5128 30.0517 32.1804 29.3377 31.6633 28.7595C31.1462 28.1813 30.4677 27.7648 29.7136 27.5628ZM31.7142 20.0964C32.0913 20.1974 32.4305 20.4057 32.6891 20.6948C32.9476 20.9839 33.1138 21.3409 33.1667 21.7206C33.2196 22.1003 33.1568 22.4858 32.9862 22.8281C32.8157 23.1705 32.545 23.4545 32.2084 23.6441C31.8719 23.8337 31.4845 23.9204 31.0954 23.8934C30.7063 23.8663 30.3329 23.7266 30.0224 23.492C29.712 23.2574 29.4783 22.9384 29.3511 22.5753C29.2239 22.2122 29.2088 21.8213 29.3077 21.4522C29.4403 20.9571 29.7684 20.5362 30.2197 20.2819C30.671 20.0276 31.2086 19.9609 31.7142 20.0964ZM18.4166 12.5321C18.5155 12.1629 18.7241 11.832 19.0158 11.5812C19.3075 11.3303 19.6693 11.1709 20.0555 11.1229C20.4418 11.075 20.835 11.1407 21.1855 11.3118C21.536 11.4829 21.828 11.7517 22.0247 12.0842C22.2214 12.4167 22.3138 12.798 22.2903 13.1798C22.2669 13.5615 22.1286 13.9267 21.8929 14.2292C21.6572 14.5316 21.3347 14.7576 20.9663 14.8787C20.5978 14.9998 20.1999 15.0105 19.8229 14.9095C19.3173 14.774 18.8851 14.4474 18.6213 14.0016C18.3576 13.5557 18.284 13.0271 18.4166 12.5321ZM10.8056 29.4985C10.4285 29.3975 10.0893 29.1893 9.83076 28.9001C9.57221 28.611 9.40598 28.254 9.35308 27.8743C9.30018 27.4946 9.36299 27.1091 9.53357 26.7668C9.70415 26.4244 9.97483 26.1405 10.3114 25.9508C10.648 25.7612 11.0353 25.6745 11.4244 25.7015C11.8135 25.7286 12.1869 25.8683 12.4974 26.1029C12.8079 26.3375 13.0415 26.6565 13.1687 27.0196C13.2959 27.3827 13.3111 27.7736 13.2121 28.1427C13.0795 28.6378 12.7514 29.0587 12.3001 29.313C11.8488 29.5673 11.3112 29.634 10.8056 29.4985ZM28.2132 33.1626C27.8361 33.0615 27.4969 32.8533 27.2383 32.5642C26.9798 32.2751 26.8135 31.9181 26.7606 31.5383C26.7077 31.1586 26.7705 30.7732 26.9411 30.4308C27.1117 30.0884 27.3824 29.8045 27.7189 29.6149C28.0555 29.4253 28.4428 29.3385 28.8319 29.3656C29.221 29.3926 29.5944 29.5323 29.9049 29.7669C30.2154 30.0015 30.449 30.3206 30.5763 30.6837C30.7035 31.0467 30.7186 31.4376 30.6197 31.8068C30.487 32.3018 30.159 32.7228 29.7077 32.977C29.2563 33.2313 28.7188 33.298 28.2132 33.1626Z" fill="black"/>
</svg>
