<svg width="1440" height="237" viewBox="0 0 1440 237" fill="none" xmlns="http://www.w3.org/2000/svg">
<g opacity="0.2">
<mask id="path-1-outside-1_59_942" maskUnits="userSpaceOnUse" x="-4" y="-1.03394" width="1456" height="239" fill="black">
<rect fill="white" x="-4" y="-1.03394" width="1456" height="239"/>
<path d="M178.786 4.68438H248.256V232.966H191.388V95.9647L139.204 196.939H106.731L54.3864 95.9647V232.966H-2.48211V4.68438H67.9572L123.21 111.151L178.786 4.68438ZM399.151 237.005C382.242 237.005 366.301 233.989 351.33 227.958C336.359 221.819 323.542 213.525 312.879 203.078C302.217 192.63 293.762 180.137 287.515 165.596C281.376 150.948 278.306 135.331 278.306 118.744C278.306 96.6648 283.53 76.6316 293.977 58.6448C304.532 40.5503 319.019 26.387 337.436 16.155C355.962 5.81528 376.533 0.645422 399.151 0.645422C421.877 0.645422 442.449 5.81528 460.867 16.155C479.392 26.387 493.878 40.5503 504.326 58.6448C514.881 76.6316 520.159 96.6648 520.159 118.744C520.159 140.824 514.881 160.911 504.326 179.006C493.878 197.1 479.392 211.317 460.867 221.657C442.449 231.889 421.877 237.005 399.151 237.005ZM399.151 182.075C417.031 182.075 431.948 176.044 443.903 163.981C455.966 151.81 461.998 136.731 461.998 118.744C461.998 100.758 455.966 85.7327 443.903 73.6697C431.948 61.6067 417.031 55.5752 399.151 55.5752C381.38 55.5752 366.517 61.6067 354.561 73.6697C342.606 85.7327 336.628 100.758 336.628 118.744C336.628 136.731 342.606 151.81 354.561 163.981C366.624 176.044 381.488 182.075 399.151 182.075ZM693.026 4.68438H749.894V232.966H693.026L607.238 104.204V232.966H550.37V4.68438H607.238L693.026 133.769V4.68438ZM944.572 232.966L932.455 196.939H845.052L832.774 232.966H771.543L855.553 4.68438H922.762L1006.77 232.966H944.572ZM862.5 144.594H914.845L888.673 67.5305L862.5 144.594ZM1149.27 232.966L1107.91 158.488H1085.45V232.966H1028.58V4.68438H1129.23C1144.53 4.68438 1158.37 8.0771 1170.75 14.8625C1183.25 21.5403 1193.05 30.9107 1200.16 42.9737C1207.27 54.929 1210.82 68.2844 1210.82 83.0401C1210.82 98.0111 1206.94 111.42 1199.19 123.268C1191.54 135.008 1181.09 144.001 1167.85 150.248L1217.44 232.966H1149.27ZM1085.45 58.3217V108.889H1127.78C1134.89 108.889 1140.81 106.466 1145.55 101.619C1150.29 96.7725 1152.66 90.6872 1152.66 83.3632C1152.66 76.2546 1150.29 70.3308 1145.55 65.5918C1140.81 60.7451 1134.89 58.3217 1127.78 58.3217H1085.45ZM1348.79 237.005C1331.88 237.005 1315.94 233.989 1300.97 227.958C1286 221.819 1273.18 213.525 1262.52 203.078C1251.86 192.63 1243.4 180.137 1237.15 165.596C1231.01 150.948 1227.94 135.331 1227.94 118.744C1227.94 96.6648 1233.17 76.6316 1243.62 58.6448C1254.17 40.5503 1268.66 26.387 1287.08 16.155C1305.6 5.81528 1326.17 0.645422 1348.79 0.645422C1370.12 0.645422 1389.61 5.2229 1407.27 14.3779C1425.05 23.5328 1439.32 36.0805 1450.09 52.0209L1400.97 82.3939C1395.27 73.9928 1387.83 67.4228 1378.68 62.6838C1369.63 57.9447 1359.67 55.5752 1348.79 55.5752C1331.02 55.5752 1316.16 61.6067 1304.2 73.6697C1292.25 85.7327 1286.27 100.758 1286.27 118.744C1286.27 136.731 1292.25 151.81 1304.2 163.981C1316.26 176.044 1331.13 182.075 1348.79 182.075C1359.67 182.075 1369.63 179.706 1378.68 174.967C1387.83 170.228 1395.27 163.658 1400.97 155.257L1450.09 185.63C1439.32 201.57 1425.05 214.118 1407.27 223.273C1389.61 232.428 1370.12 237.005 1348.79 237.005Z"/>
</mask>
<path d="M178.786 4.68437V3.74234H178.215L177.951 4.24845L178.786 4.68437ZM248.256 4.68437H249.198V3.74234H248.256V4.68437ZM248.256 232.966V233.908H249.198V232.966H248.256ZM191.388 232.966H190.446V233.908H191.388V232.966ZM191.388 95.9647H192.33L190.551 95.5322L191.388 95.9647ZM139.204 196.939V197.881H139.778L140.041 197.371L139.204 196.939ZM106.731 196.939L105.895 197.372L106.158 197.881H106.731V196.939ZM54.3864 95.9647L55.2227 95.5312L53.4443 95.9647H54.3864ZM54.3864 232.966V233.908H55.3284V232.966H54.3864ZM-2.48211 232.966H-3.42415V233.908H-2.48211V232.966ZM-2.48211 4.68437V3.74234H-3.42415V4.68437H-2.48211ZM67.9572 4.68437L68.7934 4.25044L68.5297 3.74234H67.9572V4.68437ZM123.21 111.151L122.374 111.585L123.208 113.192L124.045 111.587L123.21 111.151ZM178.786 5.62641H248.256V3.74234H178.786V5.62641ZM247.314 4.68437V232.966H249.198V4.68437H247.314ZM248.256 232.024H191.388V233.908H248.256V232.024ZM192.33 232.966V95.9647H190.446V232.966H192.33ZM190.551 95.5322L138.368 196.506L140.041 197.371L192.225 96.3972L190.551 95.5322ZM139.204 195.997H106.731V197.881H139.204V195.997ZM107.568 196.505L55.2227 95.5312L53.55 96.3983L105.895 197.372L107.568 196.505ZM53.4443 95.9647V232.966H55.3284V95.9647H53.4443ZM54.3864 232.024H-2.48211V233.908H54.3864V232.024ZM-1.54008 232.966V4.68437H-3.42415V232.966H-1.54008ZM-2.48211 5.62641H67.9572V3.74234H-2.48211V5.62641ZM67.1211 5.11831L122.374 111.585L124.046 110.717L68.7934 4.25044L67.1211 5.11831ZM124.045 111.587L179.621 5.1203L177.951 4.24845L122.375 110.715L124.045 111.587ZM351.33 227.958L350.973 228.829L350.978 228.832L351.33 227.958ZM287.515 165.596L286.646 165.96L286.649 165.968L287.515 165.596ZM293.977 58.6448L293.163 58.1701L293.163 58.1717L293.977 58.6448ZM337.436 16.155L337.894 16.9785L337.895 16.9776L337.436 16.155ZM460.867 16.155L460.406 16.9765L460.411 16.9796L460.867 16.155ZM504.326 58.6448L503.51 59.1159L503.513 59.1216L504.326 58.6448ZM504.326 179.006L503.512 178.531L503.51 178.535L504.326 179.006ZM460.867 221.657L461.324 222.48L461.326 222.48L460.867 221.657ZM443.903 163.981L443.234 163.318L443.234 163.318L443.903 163.981ZM443.903 73.6697L443.234 74.3328L443.237 74.3358L443.903 73.6697ZM354.561 163.981L353.889 164.641L353.895 164.647L354.561 163.981ZM399.151 236.063C382.357 236.063 366.536 233.068 351.682 227.084L350.978 228.832C366.066 234.91 382.127 237.947 399.151 237.947V236.063ZM351.688 227.086C336.82 220.989 324.108 212.76 313.539 202.405L312.22 203.751C322.977 214.29 335.899 222.648 350.973 228.829L351.688 227.086ZM313.539 202.405C302.969 192.049 294.582 179.659 288.38 165.224L286.649 165.968C292.942 180.614 301.464 193.212 312.22 203.751L313.539 202.405ZM288.384 165.232C282.295 150.705 279.248 135.212 279.248 118.744H277.364C277.364 135.45 280.456 151.192 286.646 165.96L288.384 165.232ZM279.248 118.744C279.248 96.8204 284.433 76.9521 294.792 59.118L293.163 58.1717C282.626 76.3111 277.364 96.5092 277.364 118.744H279.248ZM294.791 59.1195C305.26 41.172 319.623 27.1288 337.894 16.9785L336.979 15.3315C318.414 25.6452 303.804 39.9286 293.163 58.1701L294.791 59.1195ZM337.895 16.9776C356.271 6.72138 376.683 1.58746 399.151 1.58746V-0.296616C376.384 -0.296616 355.652 4.90919 336.977 15.3324L337.895 16.9776ZM399.151 1.58746C421.728 1.58746 442.139 6.72176 460.406 16.9764L461.328 15.3336C442.759 4.90881 422.026 -0.296616 399.151 -0.296616V1.58746ZM460.411 16.9796C478.789 27.1299 493.149 41.1718 503.51 59.1158L505.142 58.1738C494.607 39.9288 479.996 25.6442 461.322 15.3304L460.411 16.9796ZM503.513 59.1216C513.979 76.9552 519.216 96.8222 519.216 118.744H521.101C521.101 96.5074 515.783 76.308 505.138 58.168L503.513 59.1216ZM519.216 118.744C519.216 140.667 513.979 160.588 503.512 178.531L505.14 179.48C515.783 161.234 521.101 140.981 521.101 118.744H519.216ZM503.51 178.535C493.149 196.48 478.787 210.576 460.408 220.834L461.326 222.48C479.997 212.058 494.608 197.721 505.142 179.477L503.51 178.535ZM460.409 220.833C442.142 230.982 421.73 236.063 399.151 236.063V237.947C422.024 237.947 442.756 232.796 461.324 222.48L460.409 220.833ZM399.151 183.017C417.267 183.017 432.43 176.896 444.572 164.644L443.234 163.318C431.466 175.192 416.794 181.133 399.151 181.133V183.017ZM444.572 164.644C456.819 152.287 462.94 136.966 462.94 118.744H461.056C461.056 136.497 455.113 151.333 443.234 163.318L444.572 164.644ZM462.94 118.744C462.94 100.523 456.819 85.2537 444.569 73.0036L443.237 74.3358C455.113 86.2118 461.056 100.992 461.056 118.744H462.94ZM444.572 73.0066C432.43 60.7549 417.267 54.6332 399.151 54.6332V56.5172C416.794 56.5172 431.466 62.4585 443.234 74.3328L444.572 73.0066ZM399.151 54.6332C381.142 54.6332 366.033 60.7561 353.892 73.0066L355.231 74.3328C367 62.4574 381.618 56.5172 399.151 56.5172V54.6332ZM353.892 73.0066C341.751 85.2572 335.686 100.526 335.686 118.744H337.571C337.571 100.99 343.461 86.2082 355.231 74.3328L353.892 73.0066ZM335.686 118.744C335.686 136.963 341.751 152.284 353.889 164.641L355.233 163.321C343.461 151.336 337.571 136.499 337.571 118.744H335.686ZM353.895 164.647C366.142 176.893 381.248 183.017 399.151 183.017V181.133C381.728 181.133 367.107 175.194 355.228 163.315L353.895 164.647ZM693.026 4.68437V3.74234H692.084V4.68437H693.026ZM749.894 4.68437H750.836V3.74234H749.894V4.68437ZM749.894 232.966V233.908H750.836V232.966H749.894ZM693.026 232.966L692.242 233.488L692.521 233.908H693.026V232.966ZM607.238 104.204L608.022 103.682L606.296 101.091V104.204H607.238ZM607.238 232.966V233.908H608.18V232.966H607.238ZM550.37 232.966H549.428V233.908H550.37V232.966ZM550.37 4.68437V3.74234H549.428V4.68437H550.37ZM607.238 4.68437L608.023 4.16296L607.743 3.74234H607.238V4.68437ZM693.026 133.769L692.241 134.291L693.968 136.889V133.769H693.026ZM693.026 5.62641H749.894V3.74234H693.026V5.62641ZM748.952 4.68437V232.966H750.836V4.68437H748.952ZM749.894 232.024H693.026V233.908H749.894V232.024ZM693.81 232.444L608.022 103.682L606.454 104.727L692.242 233.488L693.81 232.444ZM606.296 104.204V232.966H608.18V104.204H606.296ZM607.238 232.024H550.37V233.908H607.238V232.024ZM551.312 232.966V4.68437H549.428V232.966H551.312ZM550.37 5.62641H607.238V3.74234H550.37V5.62641ZM606.454 5.20579L692.241 134.291L693.81 133.248L608.023 4.16296L606.454 5.20579ZM693.968 133.769V4.68437H692.084V133.769H693.968ZM944.572 232.966L943.679 233.266L943.895 233.908H944.572V232.966ZM932.455 196.939L933.348 196.638L933.132 195.997H932.455V196.939ZM845.052 196.939V195.997H844.378L844.16 196.635L845.052 196.939ZM832.774 232.966V233.908H833.448L833.665 233.27L832.774 232.966ZM771.543 232.966L770.659 232.641L770.193 233.908H771.543V232.966ZM855.553 4.68437V3.74234H854.896L854.669 4.35902L855.553 4.68437ZM922.762 4.68437L923.646 4.35902L923.419 3.74234H922.762V4.68437ZM1006.77 232.966V233.908H1008.12L1007.66 232.641L1006.77 232.966ZM862.5 144.594L861.608 144.291L861.185 145.536H862.5V144.594ZM914.845 144.594V145.536H916.16L915.737 144.291L914.845 144.594ZM888.673 67.5305L889.565 67.2276L888.673 64.6011L887.781 67.2276L888.673 67.5305ZM945.465 232.666L933.348 196.638L931.562 197.239L943.679 233.266L945.465 232.666ZM932.455 195.997H845.052V197.881H932.455V195.997ZM844.16 196.635L831.882 232.662L833.665 233.27L845.944 197.242L844.16 196.635ZM832.774 232.024H771.543V233.908H832.774V232.024ZM772.427 233.291L856.437 5.00973L854.669 4.35902L770.659 232.641L772.427 233.291ZM855.553 5.62641H922.762V3.74234H855.553V5.62641ZM921.877 5.00973L1005.89 233.291L1007.66 232.641L923.646 4.35902L921.877 5.00973ZM1006.77 232.024H944.572V233.908H1006.77V232.024ZM862.5 145.536H914.845V143.652H862.5V145.536ZM915.737 144.291L889.565 67.2276L887.781 67.8335L913.953 144.897L915.737 144.291ZM887.781 67.2276L861.608 144.291L863.392 144.897L889.565 67.8335L887.781 67.2276ZM1149.27 232.966L1148.44 233.423L1148.71 233.908H1149.27V232.966ZM1107.91 158.488L1108.73 158.03L1108.46 157.546H1107.91V158.488ZM1085.45 158.488V157.546H1084.51V158.488H1085.45ZM1085.45 232.966V233.908H1086.39V232.966H1085.45ZM1028.58 232.966H1027.64V233.908H1028.58V232.966ZM1028.58 4.68437V3.74234H1027.64V4.68437H1028.58ZM1170.75 14.8625L1170.3 15.6888L1170.31 15.6934L1170.75 14.8625ZM1200.16 42.9737L1199.35 43.4519L1199.35 43.4551L1200.16 42.9737ZM1199.19 123.268L1198.4 122.752L1198.4 122.754L1199.19 123.268ZM1167.85 150.248L1167.44 149.396L1166.5 149.84L1167.04 150.733L1167.85 150.248ZM1217.44 232.966V233.908H1219.11L1218.25 232.482L1217.44 232.966ZM1085.45 58.3217V57.3797H1084.51V58.3217H1085.45ZM1085.45 108.889H1084.51V109.831H1085.45V108.889ZM1145.55 65.5918L1144.88 66.2504L1144.88 66.2579L1145.55 65.5918ZM1150.09 232.509L1108.73 158.03L1107.08 158.945L1148.44 233.423L1150.09 232.509ZM1107.91 157.546H1085.45V159.43H1107.91V157.546ZM1084.51 158.488V232.966H1086.39V158.488H1084.51ZM1085.45 232.024H1028.58V233.908H1085.45V232.024ZM1029.52 232.966V4.68437H1027.64V232.966H1029.52ZM1028.58 5.62641H1129.23V3.74234H1028.58V5.62641ZM1129.23 5.62641C1144.38 5.62641 1158.06 8.98551 1170.3 15.6887L1171.21 14.0364C1158.67 7.16868 1144.67 3.74234 1129.23 3.74234V5.62641ZM1170.31 15.6934C1182.65 22.2906 1192.33 31.5398 1199.35 43.4519L1200.97 42.4954C1193.77 30.2815 1183.84 20.79 1171.2 14.0317L1170.31 15.6934ZM1199.35 43.4551C1206.36 55.2558 1209.88 68.4432 1209.88 83.0401H1211.76C1211.76 68.1257 1208.17 54.6021 1200.97 42.4922L1199.35 43.4551ZM1209.88 83.0401C1209.88 97.8389 1206.05 111.067 1198.4 122.752L1199.98 123.784C1207.84 111.774 1211.76 98.1834 1211.76 83.0401H1209.88ZM1198.4 122.754C1190.85 134.341 1180.54 143.22 1167.44 149.396L1168.25 151.1C1181.65 144.782 1192.23 135.675 1199.98 123.782L1198.4 122.754ZM1167.04 150.733L1216.64 233.451L1218.25 232.482L1168.65 149.764L1167.04 150.733ZM1217.44 232.024H1149.27V233.908H1217.44V232.024ZM1084.51 58.3217V108.889H1086.39V58.3217H1084.51ZM1085.45 109.831H1127.78V107.947H1085.45V109.831ZM1127.78 109.831C1135.13 109.831 1141.3 107.316 1146.22 102.278L1144.88 100.961C1140.32 105.617 1134.65 107.947 1127.78 107.947V109.831ZM1146.22 102.278C1151.15 97.2401 1153.6 90.9116 1153.6 83.3632H1151.72C1151.72 90.4628 1149.43 96.3049 1144.88 100.961L1146.22 102.278ZM1153.6 83.3632C1153.6 76.0216 1151.14 69.8529 1146.22 64.9257L1144.88 66.2579C1149.43 70.8087 1151.72 76.4877 1151.72 83.3632H1153.6ZM1146.22 64.9332C1141.3 59.8956 1135.13 57.3797 1127.78 57.3797V59.2637C1134.65 59.2637 1140.32 61.5945 1144.88 66.2504L1146.22 64.9332ZM1127.78 57.3797H1085.45V59.2637H1127.78V57.3797ZM1300.97 227.958L1300.61 228.829L1300.62 228.832L1300.97 227.958ZM1237.15 165.596L1236.28 165.96L1236.29 165.968L1237.15 165.596ZM1243.62 58.6448L1242.8 58.1701L1242.8 58.1717L1243.62 58.6448ZM1287.08 16.155L1287.53 16.9785L1287.53 16.9776L1287.08 16.155ZM1407.27 14.3779L1406.84 15.2142L1406.84 15.2153L1407.27 14.3779ZM1450.09 52.0209L1450.58 52.8221L1451.42 52.3062L1450.87 51.4935L1450.09 52.0209ZM1400.97 82.3939L1400.19 82.9233L1400.7 83.6697L1401.47 83.1951L1400.97 82.3939ZM1378.68 62.6838L1378.24 63.5182L1378.25 63.5204L1378.68 62.6838ZM1304.2 163.981L1303.53 164.641L1303.53 164.647L1304.2 163.981ZM1378.68 174.967L1378.25 174.13L1378.24 174.132L1378.68 174.967ZM1400.97 155.257L1401.47 154.455L1400.7 153.981L1400.19 154.727L1400.97 155.257ZM1450.09 185.63L1450.87 186.157L1451.42 185.344L1450.58 184.828L1450.09 185.63ZM1407.27 223.273L1406.84 222.435L1406.84 222.436L1407.27 223.273ZM1348.79 236.063C1332 236.063 1316.18 233.068 1301.32 227.084L1300.62 228.832C1315.71 234.91 1331.77 237.947 1348.79 237.947V236.063ZM1301.33 227.086C1286.46 220.989 1273.75 212.76 1263.18 202.405L1261.86 203.751C1272.62 214.29 1285.54 222.648 1300.61 228.829L1301.33 227.086ZM1263.18 202.405C1252.61 192.049 1244.22 179.659 1238.02 165.224L1236.29 165.968C1242.58 180.614 1251.1 193.212 1261.86 203.751L1263.18 202.405ZM1238.02 165.232C1231.93 150.705 1228.89 135.212 1228.89 118.744H1227C1227 135.45 1230.1 151.192 1236.28 165.96L1238.02 165.232ZM1228.89 118.744C1228.89 96.8204 1234.07 76.9521 1244.43 59.118L1242.8 58.1717C1232.27 76.3111 1227 96.5092 1227 118.744H1228.89ZM1244.43 59.1195C1254.9 41.172 1269.26 27.1288 1287.53 16.9785L1286.62 15.3315C1268.05 25.6452 1253.44 39.9286 1242.8 58.1701L1244.43 59.1195ZM1287.53 16.9776C1305.91 6.72138 1326.32 1.58746 1348.79 1.58746V-0.296616C1326.02 -0.296616 1305.29 4.90919 1286.62 15.3324L1287.53 16.9776ZM1348.79 1.58746C1369.98 1.58746 1389.32 6.13365 1406.84 15.2142L1407.71 13.5415C1389.9 4.31216 1370.26 -0.296616 1348.79 -0.296616V1.58746ZM1406.84 15.2153C1424.48 24.3008 1438.63 36.7442 1449.31 52.5483L1450.87 51.4935C1440.01 35.4169 1425.61 22.7648 1407.71 13.5404L1406.84 15.2153ZM1449.59 51.2197L1400.48 81.5927L1401.47 83.1951L1450.58 52.8221L1449.59 51.2197ZM1401.75 81.8644C1395.96 73.3318 1388.4 66.6571 1379.11 61.8472L1378.25 63.5204C1387.26 68.1885 1394.58 74.6539 1400.19 82.9233L1401.75 81.8644ZM1379.12 61.8493C1369.92 57.035 1359.81 54.6332 1348.79 54.6332V56.5172C1359.53 56.5172 1369.34 58.8544 1378.24 63.5182L1379.12 61.8493ZM1348.79 54.6332C1330.78 54.6332 1315.67 60.7561 1303.53 73.0066L1304.87 74.3328C1316.64 62.4574 1331.26 56.5172 1348.79 56.5172V54.6332ZM1303.53 73.0066C1291.39 85.2572 1285.33 100.526 1285.33 118.744H1287.21C1287.21 100.99 1293.1 86.2082 1304.87 74.3328L1303.53 73.0066ZM1285.33 118.744C1285.33 136.963 1291.39 152.284 1303.53 164.641L1304.87 163.321C1293.1 151.336 1287.21 136.499 1287.21 118.744H1285.33ZM1303.53 164.647C1315.78 176.893 1330.89 183.017 1348.79 183.017V181.133C1331.37 181.133 1316.75 175.194 1304.87 163.315L1303.53 164.647ZM1348.79 183.017C1359.81 183.017 1369.92 180.615 1379.12 175.801L1378.24 174.132C1369.34 178.796 1359.53 181.133 1348.79 181.133V183.017ZM1379.11 175.803C1388.4 170.993 1395.96 164.319 1401.75 155.786L1400.19 154.727C1394.58 162.997 1387.26 169.462 1378.25 174.13L1379.11 175.803ZM1400.48 156.058L1449.59 186.431L1450.58 184.828L1401.47 154.455L1400.48 156.058ZM1449.31 185.102C1438.63 200.906 1424.48 213.35 1406.84 222.435L1407.71 224.11C1425.61 214.886 1440.01 202.234 1450.87 186.157L1449.31 185.102ZM1406.84 222.436C1389.32 231.517 1369.98 236.063 1348.79 236.063V237.947C1370.26 237.947 1389.9 233.338 1407.71 224.109L1406.84 222.436Z" fill="white" mask="url(#path-1-outside-1_59_942)"/>
</g>
</svg>
