<svg width="68" height="68" viewBox="0 0 68 68" fill="none" xmlns="http://www.w3.org/2000/svg">
<circle cx="33.6422" cy="33.6424" r="27" transform="rotate(16.7712 33.6422 33.6424)" fill="url(#paint0_linear_105_36)"/>
<circle cx="33.6422" cy="33.6424" r="27" transform="rotate(16.7712 33.6422 33.6424)" fill="#B9B9B9"/>
<path fill-rule="evenodd" clip-rule="evenodd" d="M23.9017 28.0975L41.9623 33.5404C42.1883 33.6085 42.3663 33.7678 42.4832 33.9932L44.4352 37.8775C44.7932 38.5981 44.1306 39.4337 43.3772 39.2066L25.3166 33.7637C25.0906 33.6956 24.9127 33.5364 24.7957 33.311L22.8437 29.4267C22.4857 28.706 23.1484 27.8704 23.9017 28.0975ZM24.5074 23.9064L28.2806 21.7475C28.4838 21.6186 28.739 21.5898 28.9649 21.6579L47.0067 27.0952C47.76 27.3222 47.8507 28.3848 47.1541 28.7876L43.3997 30.9522C43.1965 31.0811 42.9413 31.1098 42.7153 31.0417L24.6547 25.5988C23.9014 25.3718 23.8108 24.3092 24.5074 23.9064ZM42.7586 43.3727L38.9854 45.5316C38.7633 45.6548 38.527 45.6892 38.301 45.6211L20.2592 40.1839C19.5059 39.9569 19.4153 38.8943 20.1119 38.4915L23.8851 36.3326C24.0883 36.2036 24.3435 36.1749 24.5695 36.243L42.6112 41.6802C43.3645 41.9073 43.4552 42.9699 42.7586 43.3727Z" fill="black"/>
<defs>
<linearGradient id="paint0_linear_105_36" x1="6.64525" y1="-101.689" x2="61.6691" y2="-101.768" gradientUnits="userSpaceOnUse">
<stop stop-color="#C44FE2"/>
<stop offset="1" stop-color="#73B0D0"/>
</linearGradient>
</defs>
</svg>
